<svg width="251" height="84" viewBox="0 0 251 84" fill="none" xmlns="http://www.w3.org/2000/svg">
<g clip-path="url(#clip0_1221_21)">
<path d="M24.0834 19.7561L24.8334 19.8391L24.0834 19.9221V19.7561Z" fill="#1F5E19" stroke="#1F5E19"/>
<path d="M32.9166 19.7561L33.6666 19.8391L32.9166 19.9221V19.7561Z" fill="#1F5E19" stroke="#1F5E19"/>
<path d="M34.4166 19.9221L34.8333 20.0051L34.4166 20.0881V19.9221Z" fill="#1F5E19" stroke="#1F5E19"/>
<path d="M23.75 20.0879L23.8333 22.3289H23.6666L23.75 20.0879Z" fill="#1F5E19" stroke="#1F5E19"/>
<path d="M35.5834 20.0879L36 20.1709L35.5834 20.2539V20.0879Z" fill="#1F5E19" stroke="#1F5E19"/>
<path d="M36.4166 20.2539L36.8333 20.3369L36.4166 20.4199V20.2539Z" fill="#1F5E19" stroke="#1F5E19"/>
<path d="M170.583 22.2461L170.75 34.5301L171 34.4471L170.5 34.6961L170.583 22.2461Z" fill="#1F5E19" stroke="#1F5E19"/>
<path d="M43.25 22.9099L43.4167 23.2419" stroke="#1F5E19"/>
<path d="M43.9166 23.408L44.25 23.906" stroke="#1F5E19"/>
<path d="M23.9167 23.574L24 24.487H23.8334L23.9167 23.574Z" fill="#1F5E19" stroke="#1F5E19"/>
<path d="M28.25 23.574L28.8333 23.657L28.25 23.74V23.574Z" fill="#1F5E19" stroke="#1F5E19"/>
<path d="M166.25 23.574L166.083 23.906" stroke="#1F5E19"/>
<path d="M31.25 23.74L32 23.823L31.25 23.906V23.74Z" fill="#1F5E19" stroke="#1F5E19"/>
<path d="M32.9166 23.9062L33.5 23.9892L32.9166 24.0722V23.9062Z" fill="#1F5E19" stroke="#1F5E19"/>
<path d="M28.0833 24.0723L28.1667 24.6533H28L28.0833 24.0723Z" fill="#1F5E19" stroke="#1F5E19"/>
<path d="M34.0834 24.0723L34.6667 24.1553L34.0834 24.2383V24.0723Z" fill="#1F5E19" stroke="#1F5E19"/>
<path d="M35.0834 24.2383L35.5 24.3213L35.0834 24.4043V24.2383Z" fill="#1F5E19" stroke="#1F5E19"/>
<path d="M44.9166 24.2383L45.5833 25.0683" stroke="#1F5E19"/>
<path d="M164.25 24.7363L164.083 25.0683" stroke="#1F5E19"/>
<path d="M24.0833 25.2344L24.1667 25.8154H24L24.0833 25.2344Z" fill="#1F5E19" stroke="#1F5E19"/>
<path d="M28.25 25.4004L28.3333 25.8154H28.1666L28.25 25.4004Z" fill="#1F5E19" stroke="#1F5E19"/>
<path d="M46.0834 25.5664L46.4167 26.0644" stroke="#1F5E19"/>
<path d="M46.5834 26.2305L46.75 26.5625" stroke="#1F5E19"/>
<path d="M24.25 26.3965L24.3333 26.8115H24.1666L24.25 26.3965Z" fill="#1F5E19" stroke="#1F5E19"/>
<path d="M28.4167 26.3965L28.5 26.8115H28.3334L28.4167 26.3965Z" fill="#1F5E19" stroke="#1F5E19"/>
<path d="M41.25 26.3965L41.4167 26.7285" stroke="#1F5E19"/>
<path d="M41.9166 26.8936L42.75 27.8896" stroke="#1F5E19"/>
<path d="M162.75 27.0596L164.5 27.1426L162.75 27.2256V27.0596Z" fill="#1F5E19" stroke="#1F5E19"/>
<path d="M164.917 27.2256L165.083 27.5576" stroke="#1F5E19"/>
<path d="M165.25 27.7236L165.333 53.5366H165.167L165.25 27.7236Z" fill="#1F5E19" stroke="#1F5E19"/>
<path d="M48.25 30.0481L48.3333 30.4631H48.1666L48.25 30.0481Z" fill="#1F5E19" stroke="#1F5E19"/>
<path d="M43.9167 30.2141L44 30.7951H43.8334L43.9167 30.2141Z" fill="#1F5E19" stroke="#1F5E19"/>
<path d="M48.4167 31.21L48.5 33.119H48.3334L48.4167 31.21Z" fill="#1F5E19" stroke="#1F5E19"/>
<path d="M30.0834 31.542L30.25 31.874" stroke="#1F5E19"/>
<path d="M30.4166 32.04L30.5833 32.372" stroke="#1F5E19"/>
<path d="M30.9166 32.7041L31.4166 33.3681" stroke="#1F5E19"/>
<path d="M43.9167 32.7041L44 33.1191H43.8334L43.9167 32.7041Z" fill="#1F5E19" stroke="#1F5E19"/>
<path d="M71.0834 32.7041L71.6667 32.7871L71.0834 32.8701V32.7041Z" fill="#1F5E19" stroke="#1F5E19"/>
<path d="M73.25 32.7041L73.8333 32.7871L73.25 32.8701V32.7041Z" fill="#1F5E19" stroke="#1F5E19"/>
<path d="M92.5834 32.7041L93.5 32.7871L92.5834 32.8701V32.7041Z" fill="#1F5E19" stroke="#1F5E19"/>
<path d="M95.25 32.7041L95.8333 32.7871L95.25 32.8701V32.7041Z" fill="#1F5E19" stroke="#1F5E19"/>
<path d="M129.417 32.7041L129.25 33.0361" stroke="#1F5E19"/>
<path d="M142.417 32.7041L142.25 33.0361" stroke="#1F5E19"/>
<path d="M155.75 32.7041L155.833 37.1031L156 37.2691L155.667 37.3521L155.75 32.7041Z" fill="#1F5E19" stroke="#1F5E19"/>
<path d="M174.917 32.7041L175.5 32.7871L174.917 32.8701V32.7041Z" fill="#1F5E19" stroke="#1F5E19"/>
<path d="M176.917 32.7041L177.667 32.7871L176.917 32.8701V32.7041Z" fill="#1F5E19" stroke="#1F5E19"/>
<path d="M195.25 32.7041L195.833 32.7871L195.25 32.8701V32.7041Z" fill="#1F5E19" stroke="#1F5E19"/>
<path d="M197.417 32.7041L198.167 32.7871L197.417 32.8701V32.7041Z" fill="#1F5E19" stroke="#1F5E19"/>
<path d="M74.5834 32.8701L75 32.9531L74.5834 33.0361V32.8701Z" fill="#1F5E19" stroke="#1F5E19"/>
<path d="M91.25 32.8701L91.6667 32.9531L91.25 33.0361V32.8701Z" fill="#1F5E19" stroke="#1F5E19"/>
<path d="M96.5834 32.8701L97 32.9531L96.5834 33.0361V32.8701Z" fill="#1F5E19" stroke="#1F5E19"/>
<path d="M153.417 32.8701L153.25 33.2021" stroke="#1F5E19"/>
<path d="M173.917 32.8701L174.333 32.9531L173.917 33.0361V32.8701Z" fill="#1F5E19" stroke="#1F5E19"/>
<path d="M194.083 32.8701L194.5 32.9531L194.083 33.0361V32.8701Z" fill="#1F5E19" stroke="#1F5E19"/>
<path d="M198.917 32.8701L199.333 32.9531L198.917 33.0361V32.8701Z" fill="#1F5E19" stroke="#1F5E19"/>
<path d="M90.4166 33.0359L90.8333 33.1189L90.4166 33.2019V33.0359Z" fill="#1F5E19" stroke="#1F5E19"/>
<path d="M163.75 33.2019L163.833 34.4469H163.667L163.75 33.2019Z" fill="#1F5E19" stroke="#1F5E19"/>
<path d="M102.583 33.3679L102.667 34.8619L103.167 34.9449L102.75 35.0279L102.5 34.7789L102.583 33.3679Z" fill="#1F5E19" stroke="#1F5E19"/>
<path d="M113.417 33.3679L113.5 34.7789H113.333L113.417 33.3679Z" fill="#1F5E19" stroke="#1F5E19"/>
<path d="M124.083 33.3679L124.167 34.7789L123.75 35.0279V34.8619L124 34.7789L124.083 33.3679Z" fill="#1F5E19" stroke="#1F5E19"/>
<path d="M217.083 33.3679L217.167 34.7789L216.583 35.0279V34.8619L217 34.7789L217.083 33.3679Z" fill="#1F5E19" stroke="#1F5E19"/>
<path d="M152.25 33.5339L152.083 33.8659" stroke="#1F5E19"/>
<path d="M206.25 33.5339L206.333 34.7789H206.167L206.25 33.5339Z" fill="#1F5E19" stroke="#1F5E19"/>
<path d="M80.25 33.866L80.3333 34.281H80.1666L80.25 33.866Z" fill="#1F5E19" stroke="#1F5E19"/>
<path d="M99.4166 33.866L99.5833 34.198" stroke="#1F5E19"/>
<path d="M127.417 33.866L127.25 34.198" stroke="#1F5E19"/>
<path d="M140.417 33.866L140.25 34.198" stroke="#1F5E19"/>
<path d="M171.583 33.866L171.417 34.198" stroke="#1F5E19"/>
<path d="M226.917 33.866L227 34.447H226.833L226.917 33.866Z" fill="#1F5E19" stroke="#1F5E19"/>
<path d="M151.417 34.032L151.25 34.364" stroke="#1F5E19"/>
<path d="M158.583 34.032L158.417 34.364" stroke="#1F5E19"/>
<path d="M87.25 34.3643L87.0834 34.6963" stroke="#1F5E19"/>
<path d="M158.083 34.3643L156.917 35.6923" stroke="#1F5E19"/>
<path d="M181.583 34.3643L181.917 34.8623" stroke="#1F5E19"/>
<path d="M202.917 34.3643L203.083 34.6963" stroke="#1F5E19"/>
<path d="M190.083 34.5303L189.75 35.0283" stroke="#1F5E19"/>
<path d="M35.5834 34.6963L36.6667 34.7793L35.5834 34.8623V34.6963Z" fill="#1F5E19" stroke="#1F5E19"/>
<path d="M150.25 34.6963L150.083 35.0283" stroke="#1F5E19"/>
<path d="M218.917 34.6963L219.5 34.9453L219.083 35.0283L218.917 34.6963Z" fill="#1F5E19" stroke="#1F5E19"/>
<path d="M226.917 34.6963L226.75 35.0283L226.333 34.9453L226.917 34.6963Z" fill="#1F5E19" stroke="#1F5E19"/>
<path d="M27.4166 34.8623L27.5833 35.1943" stroke="#1F5E19"/>
<path d="M37.75 34.8623L38.6667 34.9453L37.75 35.0283V34.8623Z" fill="#1F5E19" stroke="#1F5E19"/>
<path d="M66.25 34.8623L66.0834 35.1943" stroke="#1F5E19"/>
<path d="M73.5834 34.8623L74 34.9453L73.5834 35.0283V34.8623Z" fill="#1F5E19" stroke="#1F5E19"/>
<path d="M93.25 34.8623L94.5 34.9453L93.25 35.0283V34.8623Z" fill="#1F5E19" stroke="#1F5E19"/>
<path d="M112.75 34.8623L113.167 34.9453L112.75 35.0283V34.8623Z" fill="#1F5E19" stroke="#1F5E19"/>
<path d="M116.417 34.8623L116.833 34.9453L116.417 35.0283V34.8623Z" fill="#1F5E19" stroke="#1F5E19"/>
<path d="M203.583 34.8623L205.083 36.5223" stroke="#1F5E19"/>
<path d="M206.583 34.8623L207 34.9453L206.583 35.0283V34.8623Z" fill="#1F5E19" stroke="#1F5E19"/>
<path d="M39.4166 35.0283L39.8333 35.1113L39.4166 35.1943V35.0283Z" fill="#1F5E19" stroke="#1F5E19"/>
<path d="M86.4167 35.0283L86.25 35.3603" stroke="#1F5E19"/>
<path d="M125.417 35.0283L125.25 35.3603" stroke="#1F5E19"/>
<path d="M195.25 35.0283L195.667 35.1113L195.25 35.1943V35.0283Z" fill="#1F5E19" stroke="#1F5E19"/>
<path d="M70.75 35.1943L70.5834 35.5263" stroke="#1F5E19"/>
<path d="M95.4166 35.1943L95.5833 35.5263" stroke="#1F5E19"/>
<path d="M174.083 35.1943L175.333 35.2773L174.083 35.3603V35.1943Z" fill="#1F5E19" stroke="#1F5E19"/>
<path d="M215.583 35.1943L215.25 35.6923" stroke="#1F5E19"/>
<path d="M225.25 35.1943L225.5 35.2773L225.083 35.5263L225.25 35.1943Z" fill="#1F5E19" stroke="#1F5E19"/>
<path d="M41.25 35.3604L41.6667 35.4434L41.25 35.5264V35.3604Z" fill="#1F5E19" stroke="#1F5E19"/>
<path d="M118.083 35.3604L118.417 35.8584" stroke="#1F5E19"/>
<path d="M122.583 35.3604L121.917 36.1904" stroke="#1F5E19"/>
<path d="M208.083 35.3604L208.25 35.6924" stroke="#1F5E19"/>
<path d="M27.9166 35.5264L28.25 36.0244" stroke="#1F5E19"/>
<path d="M65.75 35.5264L65.5834 35.8584" stroke="#1F5E19"/>
<path d="M91.4167 35.5264L90.75 36.3564" stroke="#1F5E19"/>
<path d="M100.917 35.5264L101.083 35.8584" stroke="#1F5E19"/>
<path d="M188.917 35.5264L188.583 36.0244" stroke="#1F5E19"/>
<path d="M182.917 35.6924L183.083 36.0244" stroke="#1F5E19"/>
<path d="M220.917 35.6924L221 36.1074H220.833L220.917 35.6924Z" fill="#1F5E19" stroke="#1F5E19"/>
<path d="M177.25 35.8584L177.417 36.1904" stroke="#1F5E19"/>
<path d="M199.583 35.8584L200.083 36.5224" stroke="#1F5E19"/>
<path d="M208.583 35.8584L208.917 36.3564" stroke="#1F5E19"/>
<path d="M123.75 36.0244L123.667 36.2734V37.5184H125.417V37.6844H123.5V36.2734L123.75 36.0244Z" fill="#1F5E19" stroke="#1F5E19"/>
<path d="M136.75 36.0244L136.667 36.2734V37.5184H138.417V37.6844H136.75L136.5 37.4354C136.311 36.6939 136.394 36.2236 136.75 36.0244Z" fill="#1F5E19" stroke="#1F5E19"/>
<path d="M156.583 36.0244L156.417 36.3564" stroke="#1F5E19"/>
<path d="M171.75 36.0244L171.25 36.6884" stroke="#1F5E19"/>
<path d="M80.75 36.1904L80.8333 36.6054H80.6666L80.75 36.1904Z" fill="#1F5E19" stroke="#1F5E19"/>
<path d="M118.583 36.1904L118.667 36.7714H118.5L118.583 36.1904Z" fill="#1F5E19" stroke="#1F5E19"/>
<path d="M77.25 36.3564L77.5833 36.8544" stroke="#1F5E19"/>
<path d="M183.417 36.3564L183.583 36.6884" stroke="#1F5E19"/>
<path d="M220.75 36.3564L220.583 36.6884" stroke="#1F5E19"/>
<path d="M188.083 36.5225L187.917 36.8545" stroke="#1F5E19"/>
<path d="M193.083 36.5225L192.917 36.8545" stroke="#1F5E19"/>
<path d="M209.083 36.5225L209.25 36.8545" stroke="#1F5E19"/>
<path d="M223.75 36.5225L223.583 36.8545" stroke="#1F5E19"/>
<path d="M29.0834 36.6885L29.4167 37.1865" stroke="#1F5E19"/>
<path d="M121.583 36.6885L121.417 37.0205" stroke="#1F5E19"/>
<path d="M215.583 36.6885L215.75 37.0205" stroke="#1F5E19"/>
<path d="M170.917 36.8535L170.75 37.1855" stroke="#1F5E19"/>
<path d="M205.417 36.8535L205.583 37.1855" stroke="#1F5E19"/>
<path d="M80.9167 37.0195L81 37.4345H80.8334L80.9167 37.0195Z" fill="#1F5E19" stroke="#1F5E19"/>
<path d="M220.25 37.0195L220.083 37.3515" stroke="#1F5E19"/>
<path d="M96.4167 37.1855L96.5 37.9325H96.3334L96.4167 37.1855Z" fill="#1F5E19" stroke="#1F5E19"/>
<path d="M162.75 37.1855L162.583 37.5175" stroke="#1F5E19"/>
<path d="M209.583 37.1855L209.75 37.5175" stroke="#1F5E19"/>
<path d="M29.9166 37.3516L30.0833 37.6836" stroke="#1F5E19"/>
<path d="M170.583 37.3516L170.667 49.0546L170.833 49.2206L170.5 49.0546L170.583 37.3516Z" fill="#1F5E19" stroke="#1F5E19"/>
<path d="M178.583 37.3516L178.833 37.7666H178.667L178.583 37.3516Z" fill="#1F5E19" stroke="#1F5E19"/>
<path d="M216.083 37.3516L216.25 37.6836" stroke="#1F5E19"/>
<path d="M223.083 37.3516L222.917 37.6836" stroke="#1F5E19"/>
<path d="M64.75 37.5176L64.8333 37.9326H64.6666L64.75 37.5176Z" fill="#1F5E19" stroke="#1F5E19"/>
<path d="M78.4166 37.5176L78.9166 38.1816" stroke="#1F5E19"/>
<path d="M147.917 37.5176L149.833 37.6006L147.917 37.6836V37.5176Z" fill="#1F5E19" stroke="#1F5E19"/>
<path d="M85.0833 37.6836L85.1667 38.0986H85L85.0833 37.6836Z" fill="#1F5E19" stroke="#1F5E19"/>
<path d="M150.083 37.6836L150.25 38.0156" stroke="#1F5E19"/>
<path d="M162.417 37.6836L161.917 38.3476" stroke="#1F5E19"/>
<path d="M205.917 37.6836L206.083 38.0156" stroke="#1F5E19"/>
<path d="M209.917 37.6836L210.083 38.0156" stroke="#1F5E19"/>
<path d="M219.75 37.6836L219.583 38.0156" stroke="#1F5E19"/>
<path d="M216.417 37.8496L216.583 38.1816" stroke="#1F5E19"/>
<path d="M47.5834 38.0156L47.9167 38.5136" stroke="#1F5E19"/>
<path d="M101.75 38.0156L101.833 49.2206H101.667L101.75 38.0156Z" fill="#1F5E19" stroke="#1F5E19"/>
<path d="M222.583 38.0156L222.417 38.3476" stroke="#1F5E19"/>
<path d="M150.417 38.1816L150.5 38.5966H150.333L150.417 38.1816Z" fill="#1F5E19" stroke="#1F5E19"/>
<path d="M70.0834 38.3477L70.4167 38.8457" stroke="#1F5E19"/>
<path d="M32.5834 38.5137L33 38.5967L32.5834 38.6797V38.5137Z" fill="#1F5E19" stroke="#1F5E19"/>
<path d="M79.25 38.5137L79.4167 38.8457" stroke="#1F5E19"/>
<path d="M126.25 38.5137L126.333 48.5567H126.167L126.25 38.5137Z" fill="#1F5E19" stroke="#1F5E19"/>
<path d="M161.583 38.5137L161.25 39.0117" stroke="#1F5E19"/>
<path d="M216.917 38.5137L217.083 38.8457" stroke="#1F5E19"/>
<path d="M219.083 38.5137L218.917 38.8457" stroke="#1F5E19"/>
<path d="M33.75 38.6797L34.5 38.7627L33.75 38.8457V38.6797Z" fill="#1F5E19" stroke="#1F5E19"/>
<path d="M35.4166 38.8457L36.3333 38.9287L35.4166 39.0117V38.8457Z" fill="#1F5E19" stroke="#1F5E19"/>
<path d="M221.917 38.8457L221.75 39.1777" stroke="#1F5E19"/>
<path d="M37.4166 39.0117L38.1666 39.0947L37.4166 39.1777V39.0117Z" fill="#1F5E19" stroke="#1F5E19"/>
<path d="M39.0834 39.1777L39.8334 39.2607L39.0834 39.3437V39.1777Z" fill="#1F5E19" stroke="#1F5E19"/>
<path d="M218.583 39.1777L218.417 39.5097" stroke="#1F5E19"/>
<path d="M40.4166 39.3438L40.8333 39.4267L40.4166 39.5097V39.3438Z" fill="#1F5E19" stroke="#1F5E19"/>
<path d="M201.417 39.3438L201.5 39.7587H201.333L201.417 39.3438Z" fill="#1F5E19" stroke="#1F5E19"/>
<path d="M211.083 39.3438L211.25 39.6757" stroke="#1F5E19"/>
<path d="M79.9166 39.51L80.3333 39.759L80.0833 39.842L79.9166 39.51Z" fill="#1F5E19" stroke="#1F5E19"/>
<path d="M221.417 39.51L221.25 39.842" stroke="#1F5E19"/>
<path d="M49.25 39.676L49.5833 40.174" stroke="#1F5E19"/>
<path d="M191.75 39.676L191.833 40.091H191.667L191.75 39.676Z" fill="#1F5E19" stroke="#1F5E19"/>
<path d="M217.75 39.676L218.167 39.925L217.917 40.008L217.75 39.676Z" fill="#1F5E19" stroke="#1F5E19"/>
<path d="M86.0834 39.842L86.5 40.091L86.25 40.174L86.0834 39.842Z" fill="#1F5E19" stroke="#1F5E19"/>
<path d="M211.417 39.842L211.583 40.174" stroke="#1F5E19"/>
<path d="M158.083 40.0081L158.5 40.0911L158.083 40.1741V40.0081Z" fill="#1F5E19" stroke="#1F5E19"/>
<path d="M86.9166 40.1741L87.6666 40.2571L86.9166 40.3401V40.1741Z" fill="#1F5E19" stroke="#1F5E19"/>
<path d="M157.083 40.1741L157.5 40.2571L157.083 40.3401V40.1741Z" fill="#1F5E19" stroke="#1F5E19"/>
<path d="M155.917 40.3401L156.333 40.4231L155.833 40.5061L155.75 49.9681L155.667 40.5891L155.917 40.3401Z" fill="#1F5E19" stroke="#1F5E19"/>
<path d="M179.583 40.3401L179.667 40.9211H179.5L179.583 40.3401Z" fill="#1F5E19" stroke="#1F5E19"/>
<path d="M185.083 40.3401L185.167 40.7551H185L185.083 40.3401Z" fill="#1F5E19" stroke="#1F5E19"/>
<path d="M201.583 40.3401L201.667 40.7551H201.5L201.583 40.3401Z" fill="#1F5E19" stroke="#1F5E19"/>
<path d="M220.75 40.3401L220.583 40.6721" stroke="#1F5E19"/>
<path d="M50.0834 40.6721L50.25 41.0041" stroke="#1F5E19"/>
<path d="M191.583 40.6721L191.667 41.5851H191.5L191.583 40.6721Z" fill="#1F5E19" stroke="#1F5E19"/>
<path d="M186.083 40.8379L186.167 41.4189H186L186.083 40.8379Z" fill="#1F5E19" stroke="#1F5E19"/>
<path d="M96.0834 41.0039L96.5 41.0869L96.0834 41.1699V41.0039Z" fill="#1F5E19" stroke="#1F5E19"/>
<path d="M212.25 41.0039L212.417 41.3359" stroke="#1F5E19"/>
<path d="M220.25 41.0039L220.083 41.3359" stroke="#1F5E19"/>
<path d="M50.4166 41.1699L50.5833 41.5019" stroke="#1F5E19"/>
<path d="M94.25 41.3359L94.6667 41.4189L94.25 41.5019V41.3359Z" fill="#1F5E19" stroke="#1F5E19"/>
<path d="M185.25 41.502L185.333 42.249H185.167L185.25 41.502Z" fill="#1F5E19" stroke="#1F5E19"/>
<path d="M212.583 41.502L212.75 41.834" stroke="#1F5E19"/>
<path d="M46.0834 41.668L46.25 42" stroke="#1F5E19"/>
<path d="M65.5834 41.668L65.9167 42.166" stroke="#1F5E19"/>
<path d="M207.25 41.668L207.333 42.581H207.167L207.25 41.668Z" fill="#1F5E19" stroke="#1F5E19"/>
<path d="M179.75 41.834L179.833 44.407H179.667L179.75 41.834Z" fill="#1F5E19" stroke="#1F5E19"/>
<path d="M219.583 41.834L219.417 42.166" stroke="#1F5E19"/>
<path d="M79.5834 42L79.75 42.332" stroke="#1F5E19"/>
<path d="M212.917 42L213.083 42.332" stroke="#1F5E19"/>
<path d="M185.917 42.166L186 44.241H185.833L185.917 42.166Z" fill="#1F5E19" stroke="#1F5E19"/>
<path d="M46.9166 42.332L47.75 43.328" stroke="#1F5E19"/>
<path d="M201.75 42.332L201.833 43.909H201.667L201.75 42.332Z" fill="#1F5E19" stroke="#1F5E19"/>
<path d="M219.583 42.332L219.75 42.664" stroke="#1F5E19"/>
<path d="M66.4166 42.498L66.75 42.996" stroke="#1F5E19"/>
<path d="M80.5834 42.6641L81.5834 43.8261" stroke="#1F5E19"/>
<path d="M25.75 42.8301L25.5834 43.1621" stroke="#1F5E19"/>
<path d="M29.0834 42.9961L29.5834 43.6601" stroke="#1F5E19"/>
<path d="M67.0834 42.9961L67.25 43.3281" stroke="#1F5E19"/>
<path d="M25.0833 43.4939L24.9166 43.8259" stroke="#1F5E19"/>
<path d="M220.417 43.4939L220.583 43.8259" stroke="#1F5E19"/>
<path d="M87.0833 43.6599L86.9166 43.9919" stroke="#1F5E19"/>
<path d="M93.9166 43.6599L94.3333 43.7429L93.9166 43.8259V43.6599Z" fill="#1F5E19" stroke="#1F5E19"/>
<path d="M207.25 43.6599L207.333 44.5729H207.167L207.25 43.6599Z" fill="#1F5E19" stroke="#1F5E19"/>
<path d="M213.583 43.6599L213.417 43.9919" stroke="#1F5E19"/>
<path d="M48.25 43.8259L48.4167 44.1579" stroke="#1F5E19"/>
<path d="M220.75 43.9919L220.917 44.3239" stroke="#1F5E19"/>
<path d="M185.25 44.158L185.333 44.905H185.167L185.25 44.158Z" fill="#1F5E19" stroke="#1F5E19"/>
<path d="M48.5834 44.324L48.75 44.656" stroke="#1F5E19"/>
<path d="M86.0833 44.324L85.9166 44.656" stroke="#1F5E19"/>
<path d="M213.083 44.324L212.75 44.822" stroke="#1F5E19"/>
<path d="M30.0833 44.6562L30.1667 45.0712H30L30.0833 44.6562Z" fill="#1F5E19" stroke="#1F5E19"/>
<path d="M90.75 44.9883L90.4166 45.4863" stroke="#1F5E19"/>
<path d="M186.083 44.9883L186.167 45.4033H186L186.083 44.9883Z" fill="#1F5E19" stroke="#1F5E19"/>
<path d="M191.583 44.9883L191.667 45.5693H191.5L191.583 44.9883Z" fill="#1F5E19" stroke="#1F5E19"/>
<path d="M212.417 45.1543L212.25 45.4863" stroke="#1F5E19"/>
<path d="M221.583 45.1543L221.75 45.4863" stroke="#1F5E19"/>
<path d="M207.083 45.3203L207.167 45.7353H207L207.083 45.3203Z" fill="#1F5E19" stroke="#1F5E19"/>
<path d="M179.583 45.4863L179.667 45.9013H179.5L179.583 45.4863Z" fill="#1F5E19" stroke="#1F5E19"/>
<path d="M185.083 45.4863L185.167 45.9013H185L185.083 45.4863Z" fill="#1F5E19" stroke="#1F5E19"/>
<path d="M201.583 45.4863L201.667 46.0673H201.5L201.583 45.4863Z" fill="#1F5E19" stroke="#1F5E19"/>
<path d="M84.75 45.6523L84.5834 45.9843" stroke="#1F5E19"/>
<path d="M90.0833 45.6523L89.9166 45.9843" stroke="#1F5E19"/>
<path d="M215.083 45.6523L214.917 45.9843" stroke="#1F5E19"/>
<path d="M215.417 45.6523L215.75 46.1503" stroke="#1F5E19"/>
<path d="M65.25 45.8184L65.4167 46.1504" stroke="#1F5E19"/>
<path d="M211.75 45.9844L211.583 46.3164" stroke="#1F5E19"/>
<path d="M52.75 46.3164L52.8333 46.7314H52.6666L52.75 46.3164Z" fill="#1F5E19" stroke="#1F5E19"/>
<path d="M65.5834 46.3164L65.75 46.6484" stroke="#1F5E19"/>
<path d="M82.5833 46.3164L82.6667 47.3954H82.5L82.5833 46.3164Z" fill="#1F5E19" stroke="#1F5E19"/>
<path d="M191.75 46.3164L191.833 46.7314H191.667L191.75 46.3164Z" fill="#1F5E19" stroke="#1F5E19"/>
<path d="M215.917 46.3164L216.083 46.6484" stroke="#1F5E19"/>
<path d="M222.417 46.3164L222.583 46.6484" stroke="#1F5E19"/>
<path d="M23.75 46.4824L23.8333 46.8974H23.6666L23.75 46.4824Z" fill="#1F5E19" stroke="#1F5E19"/>
<path d="M30.0833 46.4824L30.1667 47.0634H30L30.0833 46.4824Z" fill="#1F5E19" stroke="#1F5E19"/>
<path d="M64.0833 46.4824L64.1667 46.8974H64L64.0833 46.4824Z" fill="#1F5E19" stroke="#1F5E19"/>
<path d="M179.417 46.4824L179.5 46.8974H179.333L179.417 46.4824Z" fill="#1F5E19" stroke="#1F5E19"/>
<path d="M214.417 46.4824L214.25 46.8144" stroke="#1F5E19"/>
<path d="M211.25 46.6484L211.083 46.9804" stroke="#1F5E19"/>
<path d="M77.0834 46.8145L77.25 47.1465" stroke="#1F5E19"/>
<path d="M222.75 46.8145L222.917 47.1465" stroke="#1F5E19"/>
<path d="M66.0834 46.9805L66.25 47.3125" stroke="#1F5E19"/>
<path d="M216.417 46.9805L216.583 47.3125" stroke="#1F5E19"/>
<path d="M213.917 47.1465L213.583 47.6445" stroke="#1F5E19"/>
<path d="M23.5833 47.3115L23.6667 47.8925H23.5L23.5833 47.3115Z" fill="#1F5E19" stroke="#1F5E19"/>
<path d="M210.583 47.4775L210.417 47.8095" stroke="#1F5E19"/>
<path d="M66.5834 47.6436L68.0834 49.3036" stroke="#1F5E19"/>
<path d="M216.917 47.6436L217.083 47.9756" stroke="#1F5E19"/>
<path d="M29.9167 47.8096L30 48.2246H29.8334L29.9167 47.8096Z" fill="#1F5E19" stroke="#1F5E19"/>
<path d="M50.0833 47.8096L50.1667 48.2246H50L50.0833 47.8096Z" fill="#1F5E19" stroke="#1F5E19"/>
<path d="M131.583 47.8096L131.667 48.3906H131.5L131.583 47.8096Z" fill="#1F5E19" stroke="#1F5E19"/>
<path d="M83.75 47.9756L83.8333 49.3866H83.6666L83.75 47.9756Z" fill="#1F5E19" stroke="#1F5E19"/>
<path d="M213.25 47.9756L213.083 48.3076" stroke="#1F5E19"/>
<path d="M223.583 47.9756L223.75 48.3076" stroke="#1F5E19"/>
<path d="M210.083 48.1416L209.75 48.6396" stroke="#1F5E19"/>
<path d="M217.417 48.3076L217.583 48.6396" stroke="#1F5E19"/>
<path d="M53.0833 48.4736L53.1667 50.8806H53L53.0833 48.4736Z" fill="#1F5E19" stroke="#1F5E19"/>
<path d="M223.917 48.4736L224.083 48.8056" stroke="#1F5E19"/>
<path d="M212.75 48.6396L212.417 49.1376" stroke="#1F5E19"/>
<path d="M187.417 48.8057L187.583 49.1377" stroke="#1F5E19"/>
<path d="M29.75 48.9717L29.8333 49.7187H29.6666L29.75 48.9717Z" fill="#1F5E19" stroke="#1F5E19"/>
<path d="M50.25 48.9717L50.3333 51.2127H50.1666L50.25 48.9717Z" fill="#1F5E19" stroke="#1F5E19"/>
<path d="M178.583 48.9717L178.417 49.3037" stroke="#1F5E19"/>
<path d="M209.417 48.9717L209.25 49.3037" stroke="#1F5E19"/>
<path d="M217.917 48.9717L218.083 49.3037" stroke="#1F5E19"/>
<path d="M187.75 49.3037L187.917 49.6357" stroke="#1F5E19"/>
<path d="M68.5834 49.4697L68.75 49.8017" stroke="#1F5E19"/>
<path d="M132.083 49.4697L132.25 49.8017" stroke="#1F5E19"/>
<path d="M178.25 49.4697L177.583 50.2997" stroke="#1F5E19"/>
<path d="M212.083 49.4697L211.917 49.8017" stroke="#1F5E19"/>
<path d="M150.417 49.6357L150.5 50.0507H150.333L150.417 49.6357Z" fill="#1F5E19" stroke="#1F5E19"/>
<path d="M200.25 49.6357L200.083 49.9677" stroke="#1F5E19"/>
<path d="M205.25 49.6357L205.083 49.9677" stroke="#1F5E19"/>
<path d="M208.917 49.6357L208.417 50.2997" stroke="#1F5E19"/>
<path d="M218.417 49.6357L218.583 49.9677" stroke="#1F5E19"/>
<path d="M224.75 49.6357L224.917 49.9677" stroke="#1F5E19"/>
<path d="M69.0834 49.802L69.25 50.134" stroke="#1F5E19"/>
<path d="M90.25 49.802L90.6667 50.051L90.4167 50.134L90.25 49.802Z" fill="#1F5E19" stroke="#1F5E19"/>
<path d="M193.083 49.802L193.583 50.466" stroke="#1F5E19"/>
<path d="M77.4167 49.968L76.75 50.798" stroke="#1F5E19"/>
<path d="M132.583 49.968L132.75 50.3" stroke="#1F5E19"/>
<path d="M188.25 49.968L189.583 51.462" stroke="#1F5E19"/>
<path d="M171.75 50.134L171.917 50.466" stroke="#1F5E19"/>
<path d="M29.75 50.3L29.8333 50.881H29.6666L29.75 50.3Z" fill="#1F5E19" stroke="#1F5E19"/>
<path d="M91.5834 50.3L92.5 50.383L91.5834 50.466V50.3Z" fill="#1F5E19" stroke="#1F5E19"/>
<path d="M177.25 50.3L177.083 50.632" stroke="#1F5E19"/>
<path d="M183.083 50.3L181.75 51.794" stroke="#1F5E19"/>
<path d="M81.4167 50.4661L81.25 50.7981" stroke="#1F5E19"/>
<path d="M104.25 50.4661L104.5 50.5491L103.917 50.7981V50.6321L104.25 50.4661Z" fill="#1F5E19" stroke="#1F5E19"/>
<path d="M135.417 50.4661L135.833 50.5491L135.417 50.6321V50.4661Z" fill="#1F5E19" stroke="#1F5E19"/>
<path d="M199.417 50.4661L199.25 50.7981" stroke="#1F5E19"/>
<path d="M208.083 50.4661L207.917 50.7981" stroke="#1F5E19"/>
<path d="M156.083 50.6321L156.25 50.9641" stroke="#1F5E19"/>
<path d="M103.25 50.7981L103.667 50.8811L103.25 50.9641V50.7981Z" fill="#1F5E19" stroke="#1F5E19"/>
<path d="M149.917 50.7981L149.75 51.1301" stroke="#1F5E19"/>
<path d="M23.5833 50.9641L23.6667 51.5451H23.5L23.5833 50.9641Z" fill="#1F5E19" stroke="#1F5E19"/>
<path d="M173.583 50.9641L174 51.0471L173.583 51.1301V50.9641Z" fill="#1F5E19" stroke="#1F5E19"/>
<path d="M175.417 50.9641L175.833 51.0471L175.417 51.1301V50.9641Z" fill="#1F5E19" stroke="#1F5E19"/>
<path d="M80.9167 51.1299L80.75 51.4619" stroke="#1F5E19"/>
<path d="M145.583 51.1299L146 51.2129L145.583 51.2959V51.1299Z" fill="#1F5E19" stroke="#1F5E19"/>
<path d="M197.917 51.1299L198.333 51.2129L197.917 51.2959V51.1299Z" fill="#1F5E19" stroke="#1F5E19"/>
<path d="M72.75 51.2959L73.5 51.3789L72.75 51.4619V51.2959Z" fill="#1F5E19" stroke="#1F5E19"/>
<path d="M74.5834 51.2959L75.1667 51.3789L74.5834 51.4619V51.2959Z" fill="#1F5E19" stroke="#1F5E19"/>
<path d="M146.25 51.2959L147 51.3789L146.25 51.4619V51.2959Z" fill="#1F5E19" stroke="#1F5E19"/>
<path d="M148.083 51.2959L148.667 51.3789L148.083 51.4619V51.2959Z" fill="#1F5E19" stroke="#1F5E19"/>
<path d="M157.583 51.2959L158.167 51.3789L157.583 51.4619V51.2959Z" fill="#1F5E19" stroke="#1F5E19"/>
<path d="M195.75 51.2959L197.5 51.3789L195.75 51.4619V51.2959Z" fill="#1F5E19" stroke="#1F5E19"/>
<path d="M203.583 51.2959L203.417 51.6279" stroke="#1F5E19"/>
<path d="M206.083 51.2959L206.5 51.3789L206.083 51.4619V51.2959Z" fill="#1F5E19" stroke="#1F5E19"/>
<path d="M212.917 51.2959L213.5 51.3789L212.917 51.4619V51.2959Z" fill="#1F5E19" stroke="#1F5E19"/>
<path d="M217.417 51.2959L218 51.3789L217.417 51.4619V51.2959Z" fill="#1F5E19" stroke="#1F5E19"/>
<path d="M226.917 51.2959L227.333 51.3789L226.917 51.4619V51.2959Z" fill="#1F5E19" stroke="#1F5E19"/>
<path d="M127.417 51.4619L128.25 52.4579" stroke="#1F5E19"/>
<path d="M158.417 51.4619L158.5 52.8729L158.25 53.1219H147.917V52.9559H158.25L158.333 52.8729L158.417 51.4619Z" fill="#1F5E19" stroke="#1F5E19"/>
<path d="M169.917 51.4619L170.583 52.2919" stroke="#1F5E19"/>
<path d="M205.75 51.4619L205.833 52.9559H213.583L213.667 52.8729V51.5449H213.833V52.8729L213.583 53.1219H205.917L205.667 52.8729L205.75 51.4619Z" fill="#1F5E19" stroke="#1F5E19"/>
<path d="M216.917 51.4619L217 52.9559L227.5 53.0389L217.083 53.1219L216.833 52.8729L216.917 51.4619Z" fill="#1F5E19" stroke="#1F5E19"/>
<path d="M29.9167 51.6279L30 52.0429H29.8334L29.9167 51.6279Z" fill="#1F5E19" stroke="#1F5E19"/>
<path d="M52.9167 51.6279L53 52.0429H52.8334L52.9167 51.6279Z" fill="#1F5E19" stroke="#1F5E19"/>
<path d="M84.75 51.6279L85.4167 52.4579" stroke="#1F5E19"/>
<path d="M95.25 51.6279L95.0834 51.9599" stroke="#1F5E19"/>
<path d="M50.0833 51.7939L50.1667 52.2089H50L50.0833 51.7939Z" fill="#1F5E19" stroke="#1F5E19"/>
<path d="M80.0833 51.7939L79.9166 52.1259" stroke="#1F5E19"/>
<path d="M169.417 51.7939L168.917 52.4579" stroke="#1F5E19"/>
<path d="M23.75 52.126L23.8333 52.541H23.6666L23.75 52.126Z" fill="#1F5E19" stroke="#1F5E19"/>
<path d="M190.917 52.126L191.083 52.458" stroke="#1F5E19"/>
<path d="M170.917 52.292L171.083 52.624" stroke="#1F5E19"/>
<path d="M65.5834 52.9561L66.8334 53.0391L65.5834 53.1221V52.9561Z" fill="#1F5E19" stroke="#1F5E19"/>
<path d="M144.917 52.9561L147.167 53.0391L144.917 53.1221V52.9561Z" fill="#1F5E19" stroke="#1F5E19"/>
<path d="M168.083 52.9561L167.583 53.6201" stroke="#1F5E19"/>
<path d="M142.583 53.1221L143.333 53.2051L142.583 53.2881V53.1221Z" fill="#1F5E19" stroke="#1F5E19"/>
<path d="M91.25 53.2881L91.6667 53.3711L91.25 53.4541V53.2881Z" fill="#1F5E19" stroke="#1F5E19"/>
<path d="M98.9166 53.2881L99.3333 53.3711L98.9166 53.4541V53.2881Z" fill="#1F5E19" stroke="#1F5E19"/>
<path d="M140.917 53.2881L141.667 53.3711L140.917 53.4541V53.2881Z" fill="#1F5E19" stroke="#1F5E19"/>
<path d="M193.75 53.2881L194.167 53.3711L193.75 53.4541V53.2881Z" fill="#1F5E19" stroke="#1F5E19"/>
<path d="M199.25 53.2881L199.667 53.3711L199.25 53.4541V53.2881Z" fill="#1F5E19" stroke="#1F5E19"/>
<path d="M72.25 53.4541L72.8333 53.5371L72.25 53.6201V53.4541Z" fill="#1F5E19" stroke="#1F5E19"/>
<path d="M75.75 53.4541L76.1667 53.5371L75.75 53.6201V53.4541Z" fill="#1F5E19" stroke="#1F5E19"/>
<path d="M88.5834 53.4541L89.1667 53.5371L88.5834 53.6201V53.4541Z" fill="#1F5E19" stroke="#1F5E19"/>
<path d="M89.4166 53.4541L90.6666 53.5371L89.4166 53.6201V53.4541Z" fill="#1F5E19" stroke="#1F5E19"/>
<path d="M99.9166 53.4541L101.333 53.5371L99.9166 53.6201V53.4541Z" fill="#1F5E19" stroke="#1F5E19"/>
<path d="M130.917 53.4541L131.333 53.5371L130.917 53.6201V53.4541Z" fill="#1F5E19" stroke="#1F5E19"/>
<path d="M133.917 53.4541L134.333 53.5371L133.917 53.6201V53.4541Z" fill="#1F5E19" stroke="#1F5E19"/>
<path d="M139.917 53.4541L140.333 53.5371L139.917 53.6201V53.4541Z" fill="#1F5E19" stroke="#1F5E19"/>
<path d="M173.917 53.4541L174.333 53.5371L173.917 53.6201V53.4541Z" fill="#1F5E19" stroke="#1F5E19"/>
<path d="M177.083 53.4541L177.5 53.5371L177.083 53.6201V53.4541Z" fill="#1F5E19" stroke="#1F5E19"/>
<path d="M194.583 53.4541L195.167 53.5371L194.583 53.6201V53.4541Z" fill="#1F5E19" stroke="#1F5E19"/>
<path d="M198.25 53.4541L198.667 53.5371L198.25 53.6201V53.4541Z" fill="#1F5E19" stroke="#1F5E19"/>
<path d="M48.9167 55.2803L48.75 55.6123" stroke="#1F5E19"/>
<path d="M48.5833 55.7783L48.4166 56.1103" stroke="#1F5E19"/>
<path d="M31.9166 56.2764L32.0833 56.6084" stroke="#1F5E19"/>
<path d="M48.25 56.2764L47.9166 56.7744" stroke="#1F5E19"/>
<path d="M51.0833 56.9404L50.9166 57.2724" stroke="#1F5E19"/>
<path d="M32.75 57.2725L32.9167 57.6045" stroke="#1F5E19"/>
<path d="M107.917 57.4385L108.083 57.7705" stroke="#1F5E19"/>
<path d="M46.9166 57.6035L46.4166 58.2675" stroke="#1F5E19"/>
<path d="M102.583 57.6035L102.667 58.8485H102.5L102.583 57.6035Z" fill="#1F5E19" stroke="#1F5E19"/>
<path d="M108.583 57.7695L109.333 57.8525L108.583 57.9355V57.7695Z" fill="#1F5E19" stroke="#1F5E19"/>
<path d="M26.0834 57.9355L26.25 58.2675" stroke="#1F5E19"/>
<path d="M50.4167 57.9355L50.25 58.2675" stroke="#1F5E19"/>
<path d="M33.75 58.1016L33.9167 58.4336" stroke="#1F5E19"/>
<path d="M46.0833 58.2676L45.9166 58.5996" stroke="#1F5E19"/>
<path d="M50.0833 58.4336L49.75 58.9316" stroke="#1F5E19"/>
<path d="M26.5834 58.5996L26.75 58.9316" stroke="#1F5E19"/>
<path d="M112.083 58.9316L111.917 59.2636" stroke="#1F5E19"/>
<path d="M27.25 59.4297L28.4167 60.7577" stroke="#1F5E19"/>
<path d="M49.0833 59.5957L48.25 60.5917" stroke="#1F5E19"/>
<path d="M110.917 60.0938L110.75 60.4257" stroke="#1F5E19"/>
<path d="M39.25 60.26L40.5 60.343L39.25 60.426V60.26Z" fill="#1F5E19" stroke="#1F5E19"/>
<path d="M29.0834 61.0901L29.25 61.4221" stroke="#1F5E19"/>
<path d="M47.4167 61.0901L47.25 61.4221" stroke="#1F5E19"/>
<path d="M106.083 61.4221L108 61.5051L106.083 61.5881V61.4221Z" fill="#1F5E19" stroke="#1F5E19"/>
<path d="M29.75 61.5879L29.9167 61.9199" stroke="#1F5E19"/>
<path d="M46.75 61.5879L46.5834 61.9199" stroke="#1F5E19"/>
<path d="M46.25 61.9199L46.0834 62.2519" stroke="#1F5E19"/>
<path d="M45.4167 62.418L45.25 62.75" stroke="#1F5E19"/>
<path d="M35.9166 64.0779L36.3333 64.1609L35.9166 64.2439V64.0779Z" fill="#1F5E19" stroke="#1F5E19"/>
<path d="M40.5834 64.0779L41 64.1609L40.5834 64.2439V64.0779Z" fill="#1F5E19" stroke="#1F5E19"/>
<path d="M0.5 0.5H250.5V83.5H0.5V0.5ZM24.1667 19.756L23.6667 20.254L23.8333 24.57L24 24.736V25.898L24.5 28.554L25.5 31.708C26.1667 33.1467 26.9444 34.4747 27.8333 35.692C28.7222 36.7987 29.9444 37.684 31.5 38.348L33.8333 38.846L37.3333 39.012L37.5 39.178H39L39.1667 39.344L41.1667 39.51C43.2778 39.9527 45.0556 40.7827 46.5 42C48.3889 43.4387 49.6111 45.5967 50.1667 48.474V51.794L49.8333 53.288C49.3889 54.7267 48.7222 55.944 47.8333 56.94C46.2778 58.6 44.1667 59.7067 41.5 60.26H38.5L37.6667 60.094C36 59.6513 34.6667 58.9873 33.6667 58.102C32.2222 56.9953 31.1667 55.612 30.5 53.952L29.8333 51.628V50.466L29.6667 49.968L30.1667 47.146C30.3889 45.486 30.2222 44.324 29.6667 43.66L28.1667 42.498C27.0556 42.2767 26.2778 42.3873 25.8333 42.83C25.0556 43.3833 24.5 44.1027 24.1667 44.988L23.5 47.478V51.628L23.8333 53.288C24.5 55.7227 25.6111 57.8253 27.1667 59.596C29.2778 61.92 32.2222 63.4693 36 64.244H41L42.5 63.912C44.8333 63.248 46.7778 62.1413 48.3333 60.592C49.4444 59.596 50.3889 58.434 51.1667 57.106L52.6667 53.62L53.1667 50.964V48.64L52.5 45.32C51.8333 43.328 50.8889 41.6127 49.6667 40.174L47 37.684L48 35.36L48.5 33.202V31.376L48 28.886C47.4444 27.3367 46.6667 26.064 45.6667 25.068L42.5 22.412L39.6667 21.084L36.8333 20.254L33.8333 19.922L33.6667 19.756H24.1667ZM168.667 22.246L162.667 25.898V27.226H164.833L165.167 27.724V53.62H167.667L169.833 51.628C170.833 52.624 172.222 53.288 174 53.62C177.444 53.952 180.056 53.3433 181.833 51.794L183.833 49.47L184.833 47.312L185.333 44.988V41.668C185.111 41.4467 185.056 41.0593 185.167 40.506C184.833 38.6247 184.167 37.1307 183.167 36.024C181.944 34.2533 180.111 33.1467 177.667 32.704L174 32.87L171 34.364L170.667 34.53V22.412V22.246H168.667ZM163.5 32.206L158.167 34.364C157.167 35.1387 156.444 36.0793 156 37.186L155.833 32.704H153.833L147.833 36.356V37.684H150L150.333 38.182L150.5 38.846V49.636L150.167 50.798L149.667 51.13L148.167 51.296L147.833 51.628V53.122H148H158.333L158.5 52.956V51.462L156.5 50.964L155.833 50.3V40.506L159.167 40.008L161.333 39.012L162.833 37.352L163.833 34.53V32.372L163.5 32.206ZM71.1667 32.704L68.6667 33.368L66.3333 34.862C65.5556 35.526 65 36.4667 64.6667 37.684V40.008L65.5 41.834C66.3889 42.83 67.5556 43.6047 69 44.158C70.6667 44.822 72.5 45.32 74.5 45.652L76.8333 46.648L77.8333 48.142C77.9445 48.9167 77.8333 49.5253 77.5 49.968L76.6667 50.798L74.5 51.462C71.8333 51.462 69.8333 50.798 68.5 49.47C67.1667 48.474 66.1111 47.2567 65.3333 45.818C64.6667 45.7073 64.2222 45.8733 64 46.316V46.98L65.5 52.956L65.6667 53.122H66.8333C67.1667 52.9007 67.3333 52.458 67.3333 51.794C68.6667 52.6793 70.3333 53.288 72.3333 53.62H76.1667L77.6667 53.288C78.8889 52.8453 79.9445 52.2367 80.8333 51.462L82.1667 49.47L82.6667 47.478L82.3333 44.988L81.6667 43.826C80.8889 42.83 79.8889 42.0553 78.6667 41.502L72 39.51L70.6667 38.846L69.6667 37.684C69.5556 36.9093 69.6667 36.356 70 36.024L71 35.194L72.1667 34.862C74.7222 34.862 76.6111 35.526 77.8333 36.854L80.1667 39.842L81.3333 39.51C81.1111 37.518 80.7222 35.6367 80.1667 33.866V33.368H78.8333L78.3333 34.364C77.4445 33.7 76.3333 33.202 75 32.87L71.1667 32.704ZM92.6667 32.704L92.5 32.87L90.5 33.036L89 33.534L86.5 35.028L85.3333 36.522L85 37.85L85.3333 39.344L86.3333 40.174L87 40.34C88 40.34 88.7222 40.1187 89.1667 39.676L90 38.348L90.6667 36.522C91.1111 35.7473 91.8333 35.2493 92.8333 35.028C94.2778 34.8067 95.2778 34.9727 95.8333 35.526L96.3333 36.854L96.5 41.004L91.5 42L88.1667 43.162L86.1667 44.324C84.8333 45.0987 84 46.3713 83.6667 48.142C83.5556 49.802 83.8889 51.0193 84.6667 51.794L86.6667 53.122L88.6667 53.62H90.6667L93.1667 52.956L96.6667 50.964L97 52.126L98 52.956L99 53.454C99.4445 53.3433 99.7778 53.3987 100 53.62L102.5 53.454L104.333 52.624H104.5V50.466L103.167 50.964L102.5 50.798L101.833 49.968V38.182L101.333 36.19L100.833 35.36C100.056 34.2533 99 33.4787 97.6667 33.036L95.8333 32.704H92.6667ZM129.5 32.704L123.5 36.356V37.684H125.833L126.167 38.348V48.64L126.667 50.466L127.333 51.628C128.222 52.624 129.444 53.288 131 53.62H134.333L135.167 53.454C136.722 53.122 138.056 52.5133 139.167 51.628V53.62L141.667 53.454L141.833 53.288H143.333L143.5 53.122H147.167V51.628L147 51.296H146.167L145.167 50.964L144.5 49.968V32.704H142.5L136.833 36.024C136.389 36.2453 136.278 36.7433 136.5 37.518L136.833 37.684C137.833 37.5733 138.556 37.6287 139 37.85L139.167 38.348V49.138L137.333 50.134L135.333 50.632H134L132.333 49.968L131.667 48.806C131.778 48.2527 131.722 47.9207 131.5 47.81V32.87V32.704H129.5ZM195.333 32.704L192 33.534L190.167 34.53L189.5 35.194L189 35.526C188 36.4113 187.222 37.518 186.667 38.846L186 41.004C186.222 41.668 186.167 42.1107 185.833 42.332V44.324L186.167 46.15C186.611 47.6993 187.278 49.0273 188.167 50.134C189.611 51.9047 191.778 53.0667 194.667 53.62H198.667C198.778 53.3987 199.111 53.3433 199.667 53.454C201.111 53.0113 202.389 52.4027 203.5 51.628L206 48.806L206.833 46.98L207.333 44.656C207.556 41.004 206.833 38.2927 205.167 36.522C204.056 35.0833 202.667 34.032 201 33.368L198.167 32.704H195.333ZM102.5 33.368V34.862L104.167 35.36L104.667 36.024L105.5 37.684L111.833 53.62L110.5 56.94L109.5 57.77C108.611 57.8807 108.056 57.77 107.833 57.438L107.5 56.94L105.667 55.778H104.667L103.167 56.442L102.5 57.77C102.389 58.6553 102.5 59.3193 102.833 59.762L104.5 61.09L106.167 61.588C108.167 61.6987 109.722 61.3113 110.833 60.426C111.944 59.5407 112.778 58.434 113.333 57.106L120.5 39.178L121.833 36.356L123 35.194L124 35.028L124.167 34.862V33.368H116.333L116.167 33.534V34.862L116.5 35.028C117.167 34.9173 117.667 35.028 118 35.36L118.5 36.024C118.611 37.02 118.5 37.7947 118.167 38.348L114.833 46.482L111 36.688L111.167 35.692L112.333 35.028C112.889 35.1387 113.278 35.0833 113.5 34.862V33.534V33.368H102.5ZM206.5 33.368L206.167 33.7V34.862L207.333 35.028L208.5 35.692L213.833 43.494L208.333 50.466L207.333 51.13L206 51.462L205.667 51.628V52.956L206 53.122H213.667L213.833 52.956V51.462C213.611 51.2407 213.222 51.1853 212.667 51.296L211.833 50.964L211.667 50.632L212.167 49.47L215.333 45.486L218.833 50.466L218.667 51.13L216.833 51.462V52.956L217.167 53.122H227.5V51.628L226 50.964L224.5 49.47L219.5 42.332L223.833 36.522C224.389 35.526 225.389 35.028 226.833 35.028L227 34.862V33.368H219L218.833 33.534V34.862L219.167 35.028L220.333 35.194L220.833 35.692V36.356L218.333 39.676L218 39.842L215.833 37.186L215.167 35.858L216.167 35.028C216.722 35.1387 217.056 35.0833 217.167 34.862V33.534V33.368H206.5Z" fill="white" stroke="white"/>
<path d="M28 23.74L32.75 23.906L37.75 24.902C39.9833 25.4996 41.7333 26.5786 43 28.139L43.8333 29.965L44 32.621L43.1667 35.858L40.75 35.194L38.75 35.028L38.5833 34.862H37.0833L36.9167 34.696H36.5833C33.75 34.8067 31.7778 34.0597 30.6667 32.455L29 29.135L28 23.74Z" fill="white" stroke="white"/>
<path d="M195.75 35.0284C198.061 34.8292 199.589 35.4102 200.333 36.7714L201.167 38.4314L201.667 40.9214V45.4034L201 48.3914L199.583 50.4664C198.717 51.2632 197.328 51.5398 195.417 51.2964C194.283 50.9976 193.422 50.4166 192.833 49.5534L192.167 48.2254L191.667 46.2334L191.5 41.7514L191.667 41.5854L191.833 39.2614L192.333 37.7674L193.75 35.8584L195.75 35.0284Z" fill="white" stroke="white"/>
<path d="M173.583 35.3599C174.728 35.216 175.672 35.2714 176.417 35.5259L178.333 36.9369L179.167 38.5969L179.5 39.9249C179.333 40.5336 179.389 40.9209 179.667 41.0869V45.4029L179 48.2249C178.644 49.0881 178.117 49.7798 177.417 50.2999C176.661 50.9307 175.55 51.2074 174.083 51.1299C172.639 50.9086 171.556 50.3276 170.833 49.3869L170.667 49.0549V37.2689L171 36.6879L171.917 36.0239L173.583 35.3599Z" fill="white" stroke="white"/>
<path d="M95.9167 43.3279L96.5 43.4109V48.5569L95.5834 49.3039L93.0834 50.2999H91.0834L89.8334 49.5529C89.3889 49.0659 89.2223 48.2913 89.3334 47.2289L90.1667 45.4859L91.75 44.4899L93.5834 43.8259L95.9167 43.3279Z" fill="white" stroke="white"/>
<path d="M24.9166 19.7561L26.5 19.8391L24.9166 19.9221V19.7561Z" fill="#1F5E19" stroke="#1F5E19"/>
<path d="M31.5834 19.7561L32.8334 19.8391L31.5834 19.9221V19.7561Z" fill="#1F5E19" stroke="#1F5E19"/>
<path d="M33.75 19.9221L34.3333 20.0051L33.75 20.0881V19.9221Z" fill="#1F5E19" stroke="#1F5E19"/>
<path d="M35.0834 20.0879L35.5 20.1709L35.0834 20.2539V20.0879Z" fill="#1F5E19" stroke="#1F5E19"/>
<path d="M36.75 20.4199L37.1667 20.5029L36.75 20.5859V20.4199Z" fill="#1F5E19" stroke="#1F5E19"/>
<path d="M37.4166 20.5859L37.8333 20.6689L37.4166 20.7519V20.5859Z" fill="#1F5E19" stroke="#1F5E19"/>
<path d="M168.75 22.2461L170.5 22.3291L168.75 22.4121V22.2461Z" fill="#1F5E19" stroke="#1F5E19"/>
<path d="M23.9167 22.4121L24 23.4911H23.8334L23.9167 22.4121Z" fill="#1F5E19" stroke="#1F5E19"/>
<path d="M42.5834 22.5779L42.75 22.9099" stroke="#1F5E19"/>
<path d="M43.0834 22.9099L43.25 23.2419" stroke="#1F5E19"/>
<path d="M167.25 23.0759L167.083 23.4079" stroke="#1F5E19"/>
<path d="M43.5834 23.2419L43.75 23.5739" stroke="#1F5E19"/>
<path d="M28.0834 23.574L28 23.823L27.9167 24.072L27.8334 23.823L28.0834 23.574Z" fill="#1F5E19" stroke="#1F5E19"/>
<path d="M28.9166 23.574L30.6666 23.657L28.9166 23.74V23.574Z" fill="#1F5E19" stroke="#1F5E19"/>
<path d="M32.0834 23.74L32.8334 23.823L32.0834 23.906V23.74Z" fill="#1F5E19" stroke="#1F5E19"/>
<path d="M33.5834 23.9062L34.1667 23.9892L33.5834 24.0722V23.9062Z" fill="#1F5E19" stroke="#1F5E19"/>
<path d="M44.4166 23.9062L45.0833 24.7362" stroke="#1F5E19"/>
<path d="M165.25 24.2383L165.083 24.5703" stroke="#1F5E19"/>
<path d="M24.0833 24.5703L24.1667 25.1513H24L24.0833 24.5703Z" fill="#1F5E19" stroke="#1F5E19"/>
<path d="M28.0833 24.7363L28.1667 25.3173H28L28.0833 24.7363Z" fill="#1F5E19" stroke="#1F5E19"/>
<path d="M45.4166 24.9023L45.9166 25.5663" stroke="#1F5E19"/>
<path d="M163.25 25.4004L163.083 25.7324" stroke="#1F5E19"/>
<path d="M162.75 25.7324L162.833 26.9774H162.667L162.75 25.7324Z" fill="#1F5E19" stroke="#1F5E19"/>
<path d="M24.25 25.8984L24.3333 26.3134H24.1666L24.25 25.8984Z" fill="#1F5E19" stroke="#1F5E19"/>
<path d="M28.25 25.8984L28.3333 26.3134H28.1666L28.25 25.8984Z" fill="#1F5E19" stroke="#1F5E19"/>
<path d="M40.5834 25.8984L40.75 26.2304" stroke="#1F5E19"/>
<path d="M41.5834 26.5615L41.75 26.8935" stroke="#1F5E19"/>
<path d="M24.4167 26.8936L24.5 27.3086H24.3334L24.4167 26.8936Z" fill="#1F5E19" stroke="#1F5E19"/>
<path d="M24.5833 27.7236L24.6667 28.1386H24.5L24.5833 27.7236Z" fill="#1F5E19" stroke="#1F5E19"/>
<path d="M42.9166 27.8896L43.0833 28.2216" stroke="#1F5E19"/>
<path d="M48.25 30.5459L48.3333 31.4589H48.1666L48.25 30.5459Z" fill="#1F5E19" stroke="#1F5E19"/>
<path d="M44.0833 30.8779L44.1667 32.6209H44L44.0833 30.8779Z" fill="#1F5E19" stroke="#1F5E19"/>
<path d="M30.5834 32.3721L30.75 32.7041" stroke="#1F5E19"/>
<path d="M71.75 32.7041L73.1667 32.7871L71.75 32.8701V32.7041Z" fill="#1F5E19" stroke="#1F5E19"/>
<path d="M93.5834 32.7041L95.1667 32.7871L93.5834 32.8701V32.7041Z" fill="#1F5E19" stroke="#1F5E19"/>
<path d="M129.583 32.7041L131.333 32.7871L129.583 32.8701V32.7041Z" fill="#1F5E19" stroke="#1F5E19"/>
<path d="M142.583 32.7041L144.333 32.7871L142.583 32.8701V32.7041Z" fill="#1F5E19" stroke="#1F5E19"/>
<path d="M153.917 32.7041L155.667 32.7871L153.917 32.8701V32.7041Z" fill="#1F5E19" stroke="#1F5E19"/>
<path d="M175.583 32.7041L176.833 32.7871L175.583 32.8701V32.7041Z" fill="#1F5E19" stroke="#1F5E19"/>
<path d="M195.917 32.7041L197.333 32.7871L195.917 32.8701V32.7041Z" fill="#1F5E19" stroke="#1F5E19"/>
<path d="M48.25 32.8701L48.3333 33.6171H48.1666L48.25 32.8701Z" fill="#1F5E19" stroke="#1F5E19"/>
<path d="M70.4166 32.8701L70.8333 32.9531L70.4166 33.0361V32.8701Z" fill="#1F5E19" stroke="#1F5E19"/>
<path d="M91.75 32.8701L92.3333 32.9531L91.75 33.0361V32.8701Z" fill="#1F5E19" stroke="#1F5E19"/>
<path d="M177.75 32.8701L178.167 32.9531L177.75 33.0361V32.8701Z" fill="#1F5E19" stroke="#1F5E19"/>
<path d="M198.417 32.8701L198.833 32.9531L198.417 33.0361V32.8701Z" fill="#1F5E19" stroke="#1F5E19"/>
<path d="M131.417 33.0359L131.5 47.5609H131.333L131.417 33.0359Z" fill="#1F5E19" stroke="#1F5E19"/>
<path d="M144.417 33.0359L144.5 49.7189H144.333L144.417 33.0359Z" fill="#1F5E19" stroke="#1F5E19"/>
<path d="M90.0834 33.2019L90.5 33.2849L90.0834 33.3679V33.2019Z" fill="#1F5E19" stroke="#1F5E19"/>
<path d="M31.5834 33.3679L31.9167 33.8659" stroke="#1F5E19"/>
<path d="M78.75 33.3684C79.5056 33.1803 79.9778 33.2633 80.1667 33.6174L80.0833 33.8664L80 33.5344H78.75V33.3684Z" fill="#1F5E19" stroke="#1F5E19"/>
<path d="M102.75 33.3679L113.333 33.4509L102.75 33.5339V33.3679Z" fill="#1F5E19" stroke="#1F5E19"/>
<path d="M116.25 33.3679L124 33.4509L116.25 33.5339V33.3679Z" fill="#1F5E19" stroke="#1F5E19"/>
<path d="M206.417 33.3679L217 33.4509L206.417 33.5339V33.3679Z" fill="#1F5E19" stroke="#1F5E19"/>
<path d="M219.083 33.3679H226.75L227 33.6169L226.917 33.8659L226.833 33.5339H219.083C218.95 33.5671 218.922 33.9268 219 34.6129H218.833C218.667 33.9489 218.75 33.5339 219.083 33.3679Z" fill="#1F5E19" stroke="#1F5E19"/>
<path d="M116.25 33.7L116.333 34.447H116.167L116.25 33.7Z" fill="#1F5E19" stroke="#1F5E19"/>
<path d="M206.417 33.7L206.5 34.447H206.333L206.417 33.7Z" fill="#1F5E19" stroke="#1F5E19"/>
<path d="M43.75 33.866L43.8333 34.281H43.6666L43.75 33.866Z" fill="#1F5E19" stroke="#1F5E19"/>
<path d="M77.4166 33.866L77.5833 34.198" stroke="#1F5E19"/>
<path d="M180.75 33.866L180.917 34.198" stroke="#1F5E19"/>
<path d="M26.9166 34.032L27.0833 34.364" stroke="#1F5E19"/>
<path d="M67.4167 34.032L67.25 34.364" stroke="#1F5E19"/>
<path d="M77.9166 34.198L78.3333 34.447L78.0833 34.53L77.9166 34.198Z" fill="#1F5E19" stroke="#1F5E19"/>
<path d="M99.75 34.198L100.583 35.194" stroke="#1F5E19"/>
<path d="M171.25 34.198L170.917 34.696" stroke="#1F5E19"/>
<path d="M181.25 34.198L181.417 34.53" stroke="#1F5E19"/>
<path d="M190.75 34.198L190.583 34.53" stroke="#1F5E19"/>
<path d="M66.9166 34.3643L65.9166 35.5263" stroke="#1F5E19"/>
<path d="M163.583 34.3643L163.667 34.7793H163.5L163.583 34.3643Z" fill="#1F5E19" stroke="#1F5E19"/>
<path d="M202.75 34.3643L202.917 34.6963" stroke="#1F5E19"/>
<path d="M27.25 34.5303L27.4167 34.8623" stroke="#1F5E19"/>
<path d="M33.9166 34.5303L34.3333 34.6133L33.9166 34.6963V34.5303Z" fill="#1F5E19" stroke="#1F5E19"/>
<path d="M126.417 34.5303L126.25 34.8623" stroke="#1F5E19"/>
<path d="M139.417 34.5303L139.25 34.8623" stroke="#1F5E19"/>
<path d="M190.25 34.5303L190.083 34.8623" stroke="#1F5E19"/>
<path d="M34.9166 34.6963L35.5 34.7793L34.9166 34.8623V34.6963Z" fill="#1F5E19" stroke="#1F5E19"/>
<path d="M72.0834 34.6963L73.6667 34.7793L72.0834 34.8623V34.6963Z" fill="#1F5E19" stroke="#1F5E19"/>
<path d="M86.9167 34.6963L86.5834 35.1943" stroke="#1F5E19"/>
<path d="M203.25 34.6963L203.417 35.0283" stroke="#1F5E19"/>
<path d="M37.0834 34.8623L37.6667 34.9453L37.0834 35.0283V34.8623Z" fill="#1F5E19" stroke="#1F5E19"/>
<path d="M74.0834 34.8623L74.5 34.9453L74.0834 35.0283V34.8623Z" fill="#1F5E19" stroke="#1F5E19"/>
<path d="M92.75 34.8623L93.1667 34.9453L92.75 35.0283V34.8623Z" fill="#1F5E19" stroke="#1F5E19"/>
<path d="M94.5834 34.8623L95 34.9453L94.5834 35.0283V34.8623Z" fill="#1F5E19" stroke="#1F5E19"/>
<path d="M112.25 34.8623L112.667 34.9453L112.25 35.0283V34.8623Z" fill="#1F5E19" stroke="#1F5E19"/>
<path d="M182.083 34.8623L182.75 35.6923" stroke="#1F5E19"/>
<path d="M195.75 34.8623L197.667 34.9453L195.75 35.0283V34.8623Z" fill="#1F5E19" stroke="#1F5E19"/>
<path d="M216.083 34.8623L216.5 34.9453L216.083 35.0283V34.8623Z" fill="#1F5E19" stroke="#1F5E19"/>
<path d="M219.583 34.8623L220 34.9453L219.583 35.0283V34.8623Z" fill="#1F5E19" stroke="#1F5E19"/>
<path d="M38.5834 35.0283L39.3334 35.1113L38.5834 35.1943V35.0283Z" fill="#1F5E19" stroke="#1F5E19"/>
<path d="M80.4167 35.0283L80.5 35.4433H80.3334L80.4167 35.0283Z" fill="#1F5E19" stroke="#1F5E19"/>
<path d="M122.917 35.0283L122.75 35.3603" stroke="#1F5E19"/>
<path d="M189.583 35.0283L189.083 35.6923" stroke="#1F5E19"/>
<path d="M27.75 35.1943L27.9167 35.5263" stroke="#1F5E19"/>
<path d="M39.9166 35.1943L40.5 35.2773L39.9166 35.3603V35.1943Z" fill="#1F5E19" stroke="#1F5E19"/>
<path d="M104.083 35.1943L104.75 36.0243" stroke="#1F5E19"/>
<path d="M111.417 35.1943L111.083 35.6923" stroke="#1F5E19"/>
<path d="M173.583 35.1943L174 35.2773L173.583 35.3603V35.1943Z" fill="#1F5E19" stroke="#1F5E19"/>
<path d="M175.417 35.1943L175.833 35.2773L175.417 35.3603V35.1943Z" fill="#1F5E19" stroke="#1F5E19"/>
<path d="M215.417 35.1943L215.25 35.5263" stroke="#1F5E19"/>
<path d="M220.583 35.1943L220.917 35.6923" stroke="#1F5E19"/>
<path d="M70.4166 35.3604L69.9166 36.0244" stroke="#1F5E19"/>
<path d="M86.25 35.3604L85.9166 35.8584" stroke="#1F5E19"/>
<path d="M95.75 35.3604L95.9167 35.6924" stroke="#1F5E19"/>
<path d="M149.25 35.3604L149.083 35.6924" stroke="#1F5E19"/>
<path d="M194.25 35.3604L194.083 35.6924" stroke="#1F5E19"/>
<path d="M122.25 35.5264L122.083 35.8584" stroke="#1F5E19"/>
<path d="M199.25 35.5264L199.417 35.8584" stroke="#1F5E19"/>
<path d="M208.417 35.5264L208.583 35.8584" stroke="#1F5E19"/>
<path d="M224.583 35.5264L223.75 36.5224" stroke="#1F5E19"/>
<path d="M43.25 35.6924L43.0834 36.0244" stroke="#1F5E19"/>
<path d="M76.4166 35.6924L76.5833 36.0244" stroke="#1F5E19"/>
<path d="M137.417 35.6924L137.25 36.0244" stroke="#1F5E19"/>
<path d="M156.917 35.6924L156.75 36.0244" stroke="#1F5E19"/>
<path d="M193.75 35.6924L193.083 36.5224" stroke="#1F5E19"/>
<path d="M65.5833 35.8584L65.4166 36.1904" stroke="#1F5E19"/>
<path d="M188.75 35.8584L188.25 36.5224" stroke="#1F5E19"/>
<path d="M28.4166 36.0244L28.9166 36.6884" stroke="#1F5E19"/>
<path d="M76.9166 36.0244L77.0833 36.3564" stroke="#1F5E19"/>
<path d="M110.917 36.0244L111 36.6054H110.833L110.917 36.0244Z" fill="#1F5E19" stroke="#1F5E19"/>
<path d="M177.583 36.0244L178.25 36.8544" stroke="#1F5E19"/>
<path d="M183.083 36.0244L183.25 36.3564" stroke="#1F5E19"/>
<path d="M147.917 36.1904L148 37.2694H147.833L147.917 36.1904Z" fill="#1F5E19" stroke="#1F5E19"/>
<path d="M171.25 36.3564L170.917 36.8544" stroke="#1F5E19"/>
<path d="M69.5833 36.5225L69.6667 36.9375H69.5L69.5833 36.5225Z" fill="#1F5E19" stroke="#1F5E19"/>
<path d="M200.25 36.5225L200.417 36.8545" stroke="#1F5E19"/>
<path d="M205.083 36.5225L205.25 36.8545" stroke="#1F5E19"/>
<path d="M77.75 36.6885L78.5833 37.6845" stroke="#1F5E19"/>
<path d="M96.4167 36.6885L96.5 37.1035H96.3334L96.4167 36.6885Z" fill="#1F5E19" stroke="#1F5E19"/>
<path d="M156.25 36.6885L156.083 37.0205" stroke="#1F5E19"/>
<path d="M220.583 36.6885L220.417 37.0205" stroke="#1F5E19"/>
<path d="M118.583 36.8535L118.667 37.2685H118.5L118.583 36.8535Z" fill="#1F5E19" stroke="#1F5E19"/>
<path d="M187.917 36.8535L187.75 37.1855" stroke="#1F5E19"/>
<path d="M209.417 36.8535L209.583 37.1855" stroke="#1F5E19"/>
<path d="M223.417 36.8535L223.083 37.3515" stroke="#1F5E19"/>
<path d="M29.5834 37.0195L29.75 37.3515" stroke="#1F5E19"/>
<path d="M215.75 37.0195L215.917 37.3515" stroke="#1F5E19"/>
<path d="M47.0833 37.3516L46.9166 37.6836" stroke="#1F5E19"/>
<path d="M101.583 37.3516L101.667 37.7666H101.5L101.583 37.3516Z" fill="#1F5E19" stroke="#1F5E19"/>
<path d="M187.583 37.3516L187.417 37.6836" stroke="#1F5E19"/>
<path d="M220.083 37.3516L219.917 37.6836" stroke="#1F5E19"/>
<path d="M162.417 37.5176L162.25 37.8496" stroke="#1F5E19"/>
<path d="M125.917 37.6836L126.083 38.0156" stroke="#1F5E19"/>
<path d="M138.917 37.6836L139.083 38.0156" stroke="#1F5E19"/>
<path d="M222.75 37.6836L222.583 38.0156" stroke="#1F5E19"/>
<path d="M47.25 37.8496L47.4167 38.1816" stroke="#1F5E19"/>
<path d="M64.75 38.0156L64.8333 39.5926H64.6666L64.75 38.0156Z" fill="#1F5E19" stroke="#1F5E19"/>
<path d="M69.75 38.0156L69.9167 38.3476" stroke="#1F5E19"/>
<path d="M96.5833 38.0156L96.6667 40.9206H96.5L96.5833 38.0156Z" fill="#1F5E19" stroke="#1F5E19"/>
<path d="M219.583 38.0156L219.25 38.5136" stroke="#1F5E19"/>
<path d="M79.0834 38.1816L79.25 38.5136" stroke="#1F5E19"/>
<path d="M81.0833 38.1816L81.1667 38.5966H81L81.0833 38.1816Z" fill="#1F5E19" stroke="#1F5E19"/>
<path d="M85.25 38.1816L85.3333 38.5966H85.1666L85.25 38.1816Z" fill="#1F5E19" stroke="#1F5E19"/>
<path d="M139.25 38.1816L139.333 49.0546L139 49.2206L139.167 49.0546L139.25 38.1816Z" fill="#1F5E19" stroke="#1F5E19"/>
<path d="M216.583 38.1816L216.75 38.5136" stroke="#1F5E19"/>
<path d="M222.25 38.3477L221.917 38.8457" stroke="#1F5E19"/>
<path d="M33.0834 38.5137L33.6667 38.5967L33.0834 38.6797V38.5137Z" fill="#1F5E19" stroke="#1F5E19"/>
<path d="M48.0834 38.5137L49.0834 39.6757" stroke="#1F5E19"/>
<path d="M210.583 38.5137L210.75 38.8457" stroke="#1F5E19"/>
<path d="M34.5834 38.6797L35.3334 38.7627L34.5834 38.8457V38.6797Z" fill="#1F5E19" stroke="#1F5E19"/>
<path d="M36.4166 38.8457L37 38.9287L36.4166 39.0117V38.8457Z" fill="#1F5E19" stroke="#1F5E19"/>
<path d="M161.083 38.8457L160.917 39.1777" stroke="#1F5E19"/>
<path d="M217.083 38.8457L217.25 39.1777" stroke="#1F5E19"/>
<path d="M218.917 38.8457L218.75 39.1777" stroke="#1F5E19"/>
<path d="M38.25 39.0117L39.1667 39.0947L38.25 39.1777V39.0117Z" fill="#1F5E19" stroke="#1F5E19"/>
<path d="M70.9166 39.0117L71.0833 39.3437" stroke="#1F5E19"/>
<path d="M89.4167 39.0117L88.75 39.8417" stroke="#1F5E19"/>
<path d="M210.917 39.0117L211.083 39.3437" stroke="#1F5E19"/>
<path d="M39.9166 39.1777L40.3333 39.2607L39.9166 39.3437V39.1777Z" fill="#1F5E19" stroke="#1F5E19"/>
<path d="M79.75 39.1777L79.9167 39.5097" stroke="#1F5E19"/>
<path d="M221.583 39.1777L221.417 39.5097" stroke="#1F5E19"/>
<path d="M85.5834 39.3438L85.9167 39.8417" stroke="#1F5E19"/>
<path d="M218.417 39.51L218.25 39.842" stroke="#1F5E19"/>
<path d="M201.583 39.676L201.667 40.257H201.5L201.583 39.676Z" fill="#1F5E19" stroke="#1F5E19"/>
<path d="M179.583 39.842L179.667 40.257H179.5L179.583 39.842Z" fill="#1F5E19" stroke="#1F5E19"/>
<path d="M221.083 39.842L220.75 40.34" stroke="#1F5E19"/>
<path d="M49.5834 40.1741L49.9167 40.6721" stroke="#1F5E19"/>
<path d="M156.417 40.1741L157 40.2571L156.417 40.3401V40.1741Z" fill="#1F5E19" stroke="#1F5E19"/>
<path d="M191.583 40.1741L191.667 40.5891H191.5L191.583 40.1741Z" fill="#1F5E19" stroke="#1F5E19"/>
<path d="M212.083 40.6721L212.25 41.0041" stroke="#1F5E19"/>
<path d="M220.417 40.6721L220.25 41.0041" stroke="#1F5E19"/>
<path d="M50.0834 40.8379L50.25 41.1699" stroke="#1F5E19"/>
<path d="M185.083 40.8379L185.167 41.2529H185L185.083 40.8379Z" fill="#1F5E19" stroke="#1F5E19"/>
<path d="M45.25 41.0039L45.4167 41.3359" stroke="#1F5E19"/>
<path d="M179.75 41.0039L179.833 41.7509H179.667L179.75 41.0039Z" fill="#1F5E19" stroke="#1F5E19"/>
<path d="M201.75 41.0039L201.833 41.7509H201.667L201.75 41.0039Z" fill="#1F5E19" stroke="#1F5E19"/>
<path d="M207.083 41.0039L207.167 41.4189H207L207.083 41.0039Z" fill="#1F5E19" stroke="#1F5E19"/>
<path d="M95.5834 41.1699L96 41.2529L95.5834 41.3359V41.1699Z" fill="#1F5E19" stroke="#1F5E19"/>
<path d="M45.75 41.3359L45.9167 41.6679" stroke="#1F5E19"/>
<path d="M65.4166 41.3359L65.5833 41.6679" stroke="#1F5E19"/>
<path d="M219.917 41.3359L219.583 41.8339" stroke="#1F5E19"/>
<path d="M186.083 41.502L186.167 41.917H186L186.083 41.502Z" fill="#1F5E19" stroke="#1F5E19"/>
<path d="M93.0834 41.668L93.5 41.751L93.0834 41.834V41.668Z" fill="#1F5E19" stroke="#1F5E19"/>
<path d="M191.417 41.668L191.5 44.573H191.333L191.417 41.668Z" fill="#1F5E19" stroke="#1F5E19"/>
<path d="M46.4166 41.834L46.75 42.332" stroke="#1F5E19"/>
<path d="M66.0834 42.166L66.25 42.498" stroke="#1F5E19"/>
<path d="M185.25 42.332L185.333 42.747H185.167L185.25 42.332Z" fill="#1F5E19" stroke="#1F5E19"/>
<path d="M213.25 42.332L213.417 42.664" stroke="#1F5E19"/>
<path d="M26.75 42.498L27.8333 42.581L26.75 42.664V42.498Z" fill="#1F5E19" stroke="#1F5E19"/>
<path d="M80.25 42.498L80.4167 42.83" stroke="#1F5E19"/>
<path d="M207.25 42.6641L207.333 43.5771H207.167L207.25 42.6641Z" fill="#1F5E19" stroke="#1F5E19"/>
<path d="M219.75 42.6641L219.917 42.9961" stroke="#1F5E19"/>
<path d="M213.583 42.8301L214 43.4111L213.667 43.5771L213.833 43.2451L213.583 42.8301Z" fill="#1F5E19" stroke="#1F5E19"/>
<path d="M185.25 42.9961L185.333 44.0751H185.167L185.25 42.9961Z" fill="#1F5E19" stroke="#1F5E19"/>
<path d="M25.4167 43.1621L25.25 43.4941" stroke="#1F5E19"/>
<path d="M95.9166 43.1621L96.3333 43.2451L95.9166 43.3281V43.1621Z" fill="#1F5E19" stroke="#1F5E19"/>
<path d="M220.083 43.1621L220.25 43.4941" stroke="#1F5E19"/>
<path d="M47.9166 43.3279L48.25 43.8259" stroke="#1F5E19"/>
<path d="M95.0834 43.3279L95.5 43.4109L95.0834 43.4939V43.3279Z" fill="#1F5E19" stroke="#1F5E19"/>
<path d="M96.5833 43.3279L96.6667 48.5569H96.5L96.5833 43.3279Z" fill="#1F5E19" stroke="#1F5E19"/>
<path d="M24.9167 43.8259L24.75 44.1579" stroke="#1F5E19"/>
<path d="M81.5834 43.8259L81.75 44.1579" stroke="#1F5E19"/>
<path d="M213.417 43.9919L213.25 44.3239" stroke="#1F5E19"/>
<path d="M86.4167 44.158L86.25 44.49" stroke="#1F5E19"/>
<path d="M186.083 44.324L186.167 44.905H186L186.083 44.324Z" fill="#1F5E19" stroke="#1F5E19"/>
<path d="M220.917 44.324L221.083 44.656" stroke="#1F5E19"/>
<path d="M91.4167 44.49L91.25 44.822" stroke="#1F5E19"/>
<path d="M179.75 44.49L179.833 45.237H179.667L179.75 44.49Z" fill="#1F5E19" stroke="#1F5E19"/>
<path d="M201.75 44.49L201.833 45.403H201.667L201.75 44.49Z" fill="#1F5E19" stroke="#1F5E19"/>
<path d="M85.75 44.6562L84.9166 45.6522" stroke="#1F5E19"/>
<path d="M207.083 44.8223L207.167 45.2373H207L207.083 44.8223Z" fill="#1F5E19" stroke="#1F5E19"/>
<path d="M212.75 44.8223L212.583 45.1543" stroke="#1F5E19"/>
<path d="M185.083 44.9883L185.167 45.4033H185L185.083 44.9883Z" fill="#1F5E19" stroke="#1F5E19"/>
<path d="M30.0833 45.1543L30.1667 46.3993H30L30.0833 45.1543Z" fill="#1F5E19" stroke="#1F5E19"/>
<path d="M90.25 45.3203L90.0834 45.6523" stroke="#1F5E19"/>
<path d="M215.25 45.3203L215.417 45.6523L215 45.5693L215.25 45.3203Z" fill="#1F5E19" stroke="#1F5E19"/>
<path d="M221.75 45.4863L221.917 45.8183" stroke="#1F5E19"/>
<path d="M191.583 45.6523L191.667 46.2333H191.5L191.583 45.6523Z" fill="#1F5E19" stroke="#1F5E19"/>
<path d="M212.083 45.6523L211.917 45.9843" stroke="#1F5E19"/>
<path d="M82.4167 45.8184L82.5 46.3994H82.3334L82.4167 45.8184Z" fill="#1F5E19" stroke="#1F5E19"/>
<path d="M179.583 45.9844L179.667 46.3994H179.5L179.583 45.9844Z" fill="#1F5E19" stroke="#1F5E19"/>
<path d="M214.75 45.9844L214.417 46.4824" stroke="#1F5E19"/>
<path d="M222.083 45.9844L222.25 46.3164" stroke="#1F5E19"/>
<path d="M201.583 46.1504L201.667 46.5654H201.5L201.583 46.1504Z" fill="#1F5E19" stroke="#1F5E19"/>
<path d="M211.583 46.3164L211.417 46.6484" stroke="#1F5E19"/>
<path d="M76.75 46.4824L76.9167 46.8144" stroke="#1F5E19"/>
<path d="M65.75 46.6484L65.9167 46.9804" stroke="#1F5E19"/>
<path d="M216.25 46.6484L216.417 46.9804" stroke="#1F5E19"/>
<path d="M214.083 46.8145L213.917 47.1465" stroke="#1F5E19"/>
<path d="M211.083 46.9805L210.75 47.4785" stroke="#1F5E19"/>
<path d="M29.9167 47.1465L30 47.7275H29.8334L29.9167 47.1465Z" fill="#1F5E19" stroke="#1F5E19"/>
<path d="M77.4166 47.1465L77.5833 47.4785" stroke="#1F5E19"/>
<path d="M89.25 47.1465L89.3333 48.3915H89.1666L89.25 47.1465Z" fill="#1F5E19" stroke="#1F5E19"/>
<path d="M222.917 47.1465L223.083 47.4785" stroke="#1F5E19"/>
<path d="M66.25 47.3115L66.4167 47.6435" stroke="#1F5E19"/>
<path d="M82.4167 47.3115L82.5 48.0585H82.3334L82.4167 47.3115Z" fill="#1F5E19" stroke="#1F5E19"/>
<path d="M216.75 47.3115L216.917 47.6435" stroke="#1F5E19"/>
<path d="M83.9167 47.4775L84 47.8925H83.8334L83.9167 47.4775Z" fill="#1F5E19" stroke="#1F5E19"/>
<path d="M52.9167 47.6436L53 48.3906H52.8334L52.9167 47.6436Z" fill="#1F5E19" stroke="#1F5E19"/>
<path d="M213.417 47.6436L213.25 47.9756" stroke="#1F5E19"/>
<path d="M223.25 47.6436L223.417 47.9756" stroke="#1F5E19"/>
<path d="M210.417 47.8096L210.25 48.1416" stroke="#1F5E19"/>
<path d="M23.5833 47.9756L23.6667 50.8806H23.5L23.5833 47.9756Z" fill="#1F5E19" stroke="#1F5E19"/>
<path d="M217.25 47.9756L217.417 48.3076" stroke="#1F5E19"/>
<path d="M77.9167 48.1416L78 49.0546H77.8334L77.9167 48.1416Z" fill="#1F5E19" stroke="#1F5E19"/>
<path d="M29.75 48.3076L29.8333 48.8886H29.6666L29.75 48.3076Z" fill="#1F5E19" stroke="#1F5E19"/>
<path d="M50.25 48.3076L50.3333 48.8886H50.1666L50.25 48.3076Z" fill="#1F5E19" stroke="#1F5E19"/>
<path d="M212.917 48.3076L212.75 48.6396" stroke="#1F5E19"/>
<path d="M126.417 48.6396L126.5 49.0546H126.333L126.417 48.6396Z" fill="#1F5E19" stroke="#1F5E19"/>
<path d="M209.75 48.6396L209.583 48.9716" stroke="#1F5E19"/>
<path d="M217.75 48.6396L217.917 48.9716" stroke="#1F5E19"/>
<path d="M96.25 48.8057L96.0834 49.1377" stroke="#1F5E19"/>
<path d="M205.75 48.8057L205.583 49.1377" stroke="#1F5E19"/>
<path d="M224.083 48.8057L224.25 49.1377" stroke="#1F5E19"/>
<path d="M170.583 49.1377L171.583 50.2997" stroke="#1F5E19"/>
<path d="M212.25 49.1377L212.083 49.4697" stroke="#1F5E19"/>
<path d="M68.25 49.3037L68.4167 49.6357" stroke="#1F5E19"/>
<path d="M101.75 49.3037L101.833 49.7187H101.667L101.75 49.3037Z" fill="#1F5E19" stroke="#1F5E19"/>
<path d="M200.583 49.3037L200.417 49.6357" stroke="#1F5E19"/>
<path d="M205.417 49.3037L205.25 49.6357" stroke="#1F5E19"/>
<path d="M209.25 49.3037L209.083 49.6357" stroke="#1F5E19"/>
<path d="M218.25 49.3037L218.417 49.6357" stroke="#1F5E19"/>
<path d="M224.417 49.3037L224.583 49.6357" stroke="#1F5E19"/>
<path d="M83.9167 49.4697L84 49.8847H83.8334L83.9167 49.4697Z" fill="#1F5E19" stroke="#1F5E19"/>
<path d="M89.75 49.4697L90.0833 49.9677" stroke="#1F5E19"/>
<path d="M132.083 49.6357L132.417 50.1337" stroke="#1F5E19"/>
<path d="M188.083 49.6357L188.25 49.9677" stroke="#1F5E19"/>
<path d="M64.9167 49.802L65 50.217H64.8334L64.9167 49.802Z" fill="#1F5E19" stroke="#1F5E19"/>
<path d="M68.9166 49.802L69.0833 50.134" stroke="#1F5E19"/>
<path d="M183.25 49.968L183.083 50.3" stroke="#1F5E19"/>
<path d="M200.083 49.968L199.583 50.632" stroke="#1F5E19"/>
<path d="M204.917 49.968L203.75 51.296" stroke="#1F5E19"/>
<path d="M208.75 49.968L208.083 50.798" stroke="#1F5E19"/>
<path d="M224.917 49.968L225.917 51.13" stroke="#1F5E19"/>
<path d="M77.4166 50.134L76.9166 50.798" stroke="#1F5E19"/>
<path d="M81.5833 50.134L81.4166 50.466" stroke="#1F5E19"/>
<path d="M211.583 50.134L211.667 50.549H211.5L211.583 50.134Z" fill="#1F5E19" stroke="#1F5E19"/>
<path d="M91.0834 50.3L91.5 50.383L91.0834 50.466V50.3Z" fill="#1F5E19" stroke="#1F5E19"/>
<path d="M92.5834 50.3L93.1667 50.383L92.5834 50.466V50.3Z" fill="#1F5E19" stroke="#1F5E19"/>
<path d="M102.083 50.4661L102.417 50.9641" stroke="#1F5E19"/>
<path d="M193.75 50.4661L193.917 50.7981" stroke="#1F5E19"/>
<path d="M104.417 50.6321L104.5 52.3751L104.167 52.5411L104.333 52.3751L104.417 50.6321Z" fill="#1F5E19" stroke="#1F5E19"/>
<path d="M134.083 50.6321L135.167 50.7151L134.083 50.7981V50.6321Z" fill="#1F5E19" stroke="#1F5E19"/>
<path d="M144.75 50.6321L145.083 51.1301" stroke="#1F5E19"/>
<path d="M150.25 50.6321L150.083 50.9641" stroke="#1F5E19"/>
<path d="M81.0833 50.7981L80.25 51.7941" stroke="#1F5E19"/>
<path d="M84.25 50.7981L84.4167 51.1301" stroke="#1F5E19"/>
<path d="M96.4167 50.7981L96.6667 50.8811L96.25 51.1301L96.4167 50.7981Z" fill="#1F5E19" stroke="#1F5E19"/>
<path d="M194.25 50.7981L194.667 51.0471L194.417 51.1301L194.25 50.7981Z" fill="#1F5E19" stroke="#1F5E19"/>
<path d="M207.75 50.7981L207.583 51.1301" stroke="#1F5E19"/>
<path d="M211.75 50.7981L211.917 51.1301" stroke="#1F5E19"/>
<path d="M29.75 50.9641L29.8333 51.5451H29.6666L29.75 50.9641Z" fill="#1F5E19" stroke="#1F5E19"/>
<path d="M218.75 50.9641L218.583 51.2961" stroke="#1F5E19"/>
<path d="M52.9167 51.1299L53 51.5449H52.8334L52.9167 51.1299Z" fill="#1F5E19" stroke="#1F5E19"/>
<path d="M95.9167 51.1299L95.75 51.4619" stroke="#1F5E19"/>
<path d="M127.25 51.1299L127.417 51.4619" stroke="#1F5E19"/>
<path d="M189.583 51.1299L189.917 51.6279" stroke="#1F5E19"/>
<path d="M50.25 51.2959L50.3333 51.7109H50.1666L50.25 51.2959Z" fill="#1F5E19" stroke="#1F5E19"/>
<path d="M72.25 51.2959L72.6667 51.3789L72.25 51.4619V51.2959Z" fill="#1F5E19" stroke="#1F5E19"/>
<path d="M84.5834 51.2959L84.75 51.6279" stroke="#1F5E19"/>
<path d="M148.75 51.2959L149.167 51.3789L148.75 51.4619V51.2959Z" fill="#1F5E19" stroke="#1F5E19"/>
<path d="M73.4166 51.4619L74.6666 51.5449L73.4166 51.6279V51.4619Z" fill="#1F5E19" stroke="#1F5E19"/>
<path d="M139.083 51.4619L139.333 51.5449L138.917 51.7939L139.083 51.4619Z" fill="#1F5E19" stroke="#1F5E19"/>
<path d="M146.917 51.4619L147.167 51.5449V52.8729H147C147.067 52.1314 147.039 51.6611 146.917 51.4619Z" fill="#1F5E19" stroke="#1F5E19"/>
<path d="M147.833 51.4619L148.167 51.5449L147.917 52.9559L147.833 51.4619Z" fill="#1F5E19" stroke="#1F5E19"/>
<path d="M169.75 51.4619L169.583 51.7939" stroke="#1F5E19"/>
<path d="M203.25 51.4619L203.083 51.7939" stroke="#1F5E19"/>
<path d="M23.75 51.6279L23.8333 52.0429H23.6666L23.75 51.6279Z" fill="#1F5E19" stroke="#1F5E19"/>
<path d="M67.4166 51.6279L67.8333 51.8769L67.5833 51.7939L67.4166 51.6279Z" fill="#1F5E19" stroke="#1F5E19"/>
<path d="M181.583 51.6279L181.417 51.9599" stroke="#1F5E19"/>
<path d="M190.25 51.6279L190.417 51.9599" stroke="#1F5E19"/>
<path d="M139.25 51.7939L139.333 53.4539L139.833 53.5369L139.417 53.6199L139.167 53.3709L139.25 51.7939Z" fill="#1F5E19" stroke="#1F5E19"/>
<path d="M202.75 51.7939L202.583 52.1259" stroke="#1F5E19"/>
<path d="M227.417 51.7939L227.5 52.8729H227.333L227.417 51.7939Z" fill="#1F5E19" stroke="#1F5E19"/>
<path d="M65.4167 51.96L65.5 52.375H65.3334L65.4167 51.96Z" fill="#1F5E19" stroke="#1F5E19"/>
<path d="M79.75 51.96L79.5834 52.292" stroke="#1F5E19"/>
<path d="M170.583 51.96L170.75 52.292" stroke="#1F5E19"/>
<path d="M181.083 51.96L180.917 52.292" stroke="#1F5E19"/>
<path d="M97.25 52.126L97.75 52.79" stroke="#1F5E19"/>
<path d="M168.917 52.126L168.25 52.956" stroke="#1F5E19"/>
<path d="M85.5834 52.292L85.75 52.624" stroke="#1F5E19"/>
<path d="M128.417 52.292L128.583 52.624" stroke="#1F5E19"/>
<path d="M98.0834 52.79L98.5 53.039L98.25 53.122L98.0834 52.79Z" fill="#1F5E19" stroke="#1F5E19"/>
<path d="M143.417 52.9561L144.833 53.0391L143.417 53.1221V52.9561Z" fill="#1F5E19" stroke="#1F5E19"/>
<path d="M70.9166 53.1221L71.3333 53.2051L70.9166 53.2881V53.1221Z" fill="#1F5E19" stroke="#1F5E19"/>
<path d="M141.75 53.1221L142.5 53.2051L141.75 53.2881V53.1221Z" fill="#1F5E19" stroke="#1F5E19"/>
<path d="M71.75 53.2881L72.1667 53.3711L71.75 53.4541V53.2881Z" fill="#1F5E19" stroke="#1F5E19"/>
<path d="M87.9166 53.2881L88.3333 53.3711L87.9166 53.4541V53.2881Z" fill="#1F5E19" stroke="#1F5E19"/>
<path d="M99.4166 53.2881L99.8333 53.3711L99.4166 53.4541V53.2881Z" fill="#1F5E19" stroke="#1F5E19"/>
<path d="M101.583 53.2881L102.167 53.3711L101.583 53.4541V53.2881Z" fill="#1F5E19" stroke="#1F5E19"/>
<path d="M167.583 53.2881L167.417 53.6201L165.333 53.5371L167.417 53.4541L167.583 53.2881Z" fill="#1F5E19" stroke="#1F5E19"/>
<path d="M72.9166 53.4541L75.6666 53.5371L72.9166 53.6201V53.4541Z" fill="#1F5E19" stroke="#1F5E19"/>
<path d="M111.917 53.4541L112 53.8691H111.833L111.917 53.4541Z" fill="#1F5E19" stroke="#1F5E19"/>
<path d="M131.417 53.4541L133.833 53.5371L131.417 53.6201V53.4541Z" fill="#1F5E19" stroke="#1F5E19"/>
<path d="M174.417 53.4541L177 53.5371L174.417 53.6201V53.4541Z" fill="#1F5E19" stroke="#1F5E19"/>
<path d="M195.25 53.4541L198.167 53.5371L195.25 53.6201V53.4541Z" fill="#1F5E19" stroke="#1F5E19"/>
<path d="M31.25 55.4463L31.4167 55.7783" stroke="#1F5E19"/>
<path d="M104.917 55.7783L105.333 55.8613L104.917 55.9443V55.7783Z" fill="#1F5E19" stroke="#1F5E19"/>
<path d="M31.5834 55.9443L31.75 56.2763" stroke="#1F5E19"/>
<path d="M103.583 56.2764L103.083 56.9404" stroke="#1F5E19"/>
<path d="M106.583 56.2764L107.75 57.6044" stroke="#1F5E19"/>
<path d="M32.0834 56.6084L32.5834 57.2724" stroke="#1F5E19"/>
<path d="M47.9166 56.7744L46.9166 57.9364" stroke="#1F5E19"/>
<path d="M110.583 56.7744L109.75 57.7704" stroke="#1F5E19"/>
<path d="M33.0834 57.6035L33.5834 58.2675" stroke="#1F5E19"/>
<path d="M50.5833 57.6035L50.4166 57.9355" stroke="#1F5E19"/>
<path d="M112.583 58.1016L112.417 58.4336" stroke="#1F5E19"/>
<path d="M26.4166 58.2676L26.5833 58.5996" stroke="#1F5E19"/>
<path d="M34.0834 58.4336L34.25 58.7656" stroke="#1F5E19"/>
<path d="M112.25 58.5996L112.083 58.9316" stroke="#1F5E19"/>
<path d="M34.5834 58.7656L34.75 59.0976" stroke="#1F5E19"/>
<path d="M45.4167 58.7656L45.25 59.0976" stroke="#1F5E19"/>
<path d="M26.9166 58.9316L27.4166 59.5956" stroke="#1F5E19"/>
<path d="M49.5834 58.9316L49.0834 59.5956" stroke="#1F5E19"/>
<path d="M111.75 59.2637L111.083 60.0937" stroke="#1F5E19"/>
<path d="M103.083 59.7617L103.75 60.5917" stroke="#1F5E19"/>
<path d="M37.5834 60.0938L38 60.1767L37.5834 60.2597V60.0938Z" fill="#1F5E19" stroke="#1F5E19"/>
<path d="M38.5834 60.26L39.1667 60.343L38.5834 60.426V60.26Z" fill="#1F5E19" stroke="#1F5E19"/>
<path d="M40.5834 60.26L41.1667 60.343L40.5834 60.426V60.26Z" fill="#1F5E19" stroke="#1F5E19"/>
<path d="M110.583 60.26L110.417 60.592" stroke="#1F5E19"/>
<path d="M48.0834 60.426L47.5834 61.09" stroke="#1F5E19"/>
<path d="M28.5834 60.592L28.9167 61.09" stroke="#1F5E19"/>
<path d="M29.4166 61.2561L29.5833 61.5881" stroke="#1F5E19"/>
<path d="M47.0833 61.2561L46.9166 61.5881" stroke="#1F5E19"/>
<path d="M29.9166 61.5879L30.0833 61.9199" stroke="#1F5E19"/>
<path d="M30.4166 61.9199L30.5833 62.2519" stroke="#1F5E19"/>
<path d="M35.4166 63.9121L35.8333 63.9951L35.4166 64.0781V63.9121Z" fill="#1F5E19" stroke="#1F5E19"/>
<path d="M41.0834 63.9121L41.5 63.9951L41.0834 64.0781V63.9121Z" fill="#1F5E19" stroke="#1F5E19"/>
<path d="M36.4166 64.0779L37 64.1609L36.4166 64.2439V64.0779Z" fill="#1F5E19" stroke="#1F5E19"/>
<path d="M39.9166 64.0779L40.5 64.1609L39.9166 64.2439V64.0779Z" fill="#1F5E19" stroke="#1F5E19"/>
<path d="M26.5833 19.7561L33.5833 19.9221L38.0833 20.7521L42.4166 22.5781L45.3333 24.7361L47 26.9771L47.8333 28.8031L48.1666 30.1311L48.3333 32.7871L47.6666 35.9411L46.8333 37.6011L49.5 40.0911C50.7444 41.5076 51.6888 43.223 52.3333 45.2371L53 48.5571V51.0471L52.5 53.5371L51 57.0231L48.25 60.4261C46.9055 61.6877 45.2944 62.6837 43.4166 63.4141L39.75 64.2441H37.0833L36.9166 64.0781L34.9166 63.9121L32.4166 63.0821C30.4722 62.2521 28.8333 61.1178 27.5 59.6791C26 58.1298 24.8888 56.1931 24.1666 53.8691L23.6666 51.5451V47.3951L24.1666 45.2371C24.5111 44.3075 25.0388 43.5605 25.75 42.9961C26.2277 42.5866 27.0055 42.476 28.0833 42.6641L29.5 43.5771C30.0666 44.3407 30.2333 45.5027 30 47.0631L29.6666 48.3911V51.5451C30.2777 54.4778 31.5833 56.7188 33.5833 58.2681C34.5166 59.0538 35.6277 59.6625 36.9166 60.0941L38.5833 60.4261H41.0833L42.75 60.0941L45.25 59.0981L48 56.8571C48.8888 55.8611 49.5555 54.6438 50 53.2051L50.3333 51.7111V48.3911C49.7333 45.5027 48.4277 43.317 46.4166 41.8341C44.9833 40.661 43.2055 39.831 41.0833 39.3441L39.25 39.1781L39.0833 39.0121L33.75 38.6801L31.4166 38.1821C30.0166 37.5845 28.8777 36.7268 28 35.6091C26.5666 33.8274 25.5111 31.6694 24.8333 29.1351L24 24.4871L23.8333 20.1711L24.0833 19.9221H26.4166L26.5833 19.7561ZM28.1666 23.5741L27.8333 23.9061L28.6666 28.5541C29.1111 29.9928 29.7222 31.3208 30.5 32.5381C31.1666 33.4234 32.1111 34.0874 33.3333 34.5301L35 34.8621H36.6666H37L37.1666 35.0281L41 35.3601L43.1666 36.0241L43.8333 34.3641L44.1666 32.7041C44.2777 30.7121 43.9444 29.2181 43.1666 28.2221L40.6666 25.8981L37.3333 24.5701L32.8333 23.7401L28.1666 23.5741Z" fill="#1F5E19" stroke="#1F5E19"/>
<path d="M168.583 22.4121H170.417L170.5 22.4951V34.7791L170.75 34.6961C171.572 33.9104 172.628 33.357 173.917 33.0361L174.75 32.8701H177.583C179.994 33.2906 181.8 34.3143 183 35.9411L184.167 37.7671L185 40.4231C184.856 40.9543 184.911 41.2863 185.167 41.4191V44.9051L184.5 47.7271L183.5 49.7191L181.75 51.6281C180.661 52.5356 179.272 53.1442 177.583 53.4541H173.75C172.094 53.111 170.761 52.447 169.75 51.4621L167.417 53.4541H165.333V27.6411L164.75 27.0601H162.833V25.7321L168.583 22.4121ZM173.667 35.1941L171.333 36.3561L170.5 37.3521V49.3041L172.167 50.6321L173.333 51.1301C174 50.9088 174.444 50.9641 174.667 51.2961L176.167 51.1301L177.5 50.4661C178.167 49.9128 178.722 49.1934 179.167 48.3081L179.833 45.3201V41.1701C179.611 40.9488 179.556 40.5614 179.667 40.0081C179.444 38.6801 179 37.6288 178.333 36.8541L176.5 35.3601C175.722 35.1388 174.778 35.0834 173.667 35.1941Z" fill="#1F5E19" stroke="#1F5E19"/>
<path d="M163.583 32.2061L163.667 34.2811C163.411 34.4249 163.356 34.7569 163.5 35.2771L162.667 37.2691L161.25 38.8461L159.083 39.8421L155.667 40.3401V50.2171L156.417 51.1301C156.783 51.4289 157.339 51.5395 158.083 51.4621L158.333 51.7111V52.8731L158.25 52.9561H148V51.7111L148.25 51.4621C149.25 51.5174 149.944 51.2684 150.333 50.7151L150.5 50.3831V38.0991L149.917 37.5181L147.833 37.4351C148.111 37.2691 148.167 36.8817 148 36.2731L148.25 36.0241L153.75 32.8701H155.667V37.4351L156 37.5181C156.344 36.2565 157.039 35.2605 158.083 34.5301L158.917 34.0321L162.417 32.8701L163.583 32.2061Z" fill="#1F5E19" stroke="#1F5E19"/>
<path d="M70.9166 32.8701H74.0833L74.9166 33.0361C76.3055 33.3349 77.4444 33.8329 78.3333 34.5301L78.6666 33.5341H79.9166L80 33.7831L81.1666 39.3441L80 39.6761C79.5 38.5031 78.75 37.5071 77.75 36.6881C76.5277 35.3601 74.6388 34.6961 72.0833 34.6961L70.9166 35.0281L69.8333 35.9411C69.5 36.2731 69.3888 36.8265 69.5 37.6011C69.6555 38.2762 70.0166 38.7465 70.5833 39.0121L71.4166 39.5101L78.5833 41.6681C79.7722 42.144 80.7444 42.8357 81.5 43.7431L82.3333 45.4031L82.5 47.2291L82.1666 49.0551L81.6666 50.0511L79.9166 51.9601L78.0833 52.9561L76.25 53.4541H72.25L69.5833 52.7901L67.3333 51.6281L66.75 52.9561C66.0833 53.1221 65.6666 53.0391 65.5 52.7071L64.1666 46.1501L65.3333 45.9841C66.0333 47.4449 67.0611 48.6622 68.4166 49.6361L71.0833 51.1301L72.25 51.4621L74.5833 51.6281L75.9166 51.2961L77.5 50.2171L78 49.0551V48.2251C77.8 47.4283 77.3833 46.8473 76.75 46.4821L74.4166 45.4861C72.4277 45.1431 70.5944 44.6451 68.9166 43.9921C67.5611 43.5163 66.4777 42.7692 65.6666 41.7511C64.8666 40.8879 64.5888 39.5046 64.8333 37.6011C65.2444 36.1846 65.9944 35.1056 67.0833 34.3641L68.9166 33.3681L70.9166 32.8701Z" fill="#1F5E19" stroke="#1F5E19"/>
<path d="M92.4167 32.8704C96.3833 32.4609 99.1333 33.2632 100.667 35.2774L101.167 36.1074L101.667 37.9334V49.7194L102.417 50.9644L103.083 51.1304L104.25 50.6324L104.333 52.3754L102.417 53.2884L99.9167 53.4544L97.9167 52.7904L97 51.8774L96.6667 50.7984L93.0833 52.7904L91.5833 53.2884L88.4167 53.4544L86.5833 52.9564L84.8333 51.7114C84.0556 50.9367 83.7222 49.7194 83.8333 48.0594C84.1556 46.4436 84.9056 45.254 86.0833 44.4904L89.75 42.6644L94.25 41.5024L95.9167 41.3364L96.6667 40.9214L96.5 36.7714L95.75 35.3604L94.9167 34.8624H92.75C91.7389 35.128 90.9889 35.6536 90.5 36.4394L89.5 38.9294L88.5833 39.8424C88.1833 40.1633 87.5722 40.274 86.75 40.1744L85.5 39.2614L85.1667 37.6014L85.5 36.4394L86.3333 35.1944L88.9167 33.7004L92.4167 32.8704ZM96 43.1624L92.6667 43.9924L90.3333 45.3204L89.1667 47.3124C89.0556 48.3084 89.2222 49.083 89.6667 49.6364L91.1667 50.4664H93.1667L96.1667 49.1384L96.6667 48.6404V43.4944C96.5556 43.1624 96.3333 43.0517 96 43.1624Z" fill="#1F5E19" stroke="#1F5E19"/>
<path d="M129.417 32.8701L131.5 32.9531L131.333 33.1191V47.5611L131.667 49.0551L132.417 50.1341C133.039 50.621 133.928 50.8424 135.083 50.7981L137.25 50.3001L139.333 49.0551V38.2651L138.917 37.6841L138.583 37.5181H136.667V36.2731L136.917 36.1901L142.417 32.8701H144.417L144.333 33.1191V49.7191L144.667 50.7151L145.083 51.1301L146.75 51.4621L147 51.7111V52.9561H143.417L143.25 53.1221H141.75L141.583 53.2881L139.333 53.4541V51.5451L139.083 51.4621L137.083 52.6241L134.417 53.4541H130.917C129.45 53.1442 128.311 52.5079 127.5 51.5451L126.667 50.0511L126.333 48.5571V38.2651L125.917 37.6841L125.583 37.5181H123.667V36.2731L123.917 36.1901L129.417 32.8701Z" fill="#1F5E19" stroke="#1F5E19"/>
<path d="M194.917 32.8701H198.25L200.917 33.5341C202.606 34.176 203.967 35.1443 205 36.4391L206.667 39.4271L207.167 41.5851V44.7391L206.833 46.3991L205.833 48.7231L203.417 51.4621L201.083 52.7901L198.75 53.4541H194.583C191.861 52.9672 189.778 51.8328 188.333 50.0511C186.667 48.2804 185.889 45.6244 186 42.0831L186.833 38.7631L188.833 35.6921L191.917 33.7001L194.917 32.8701ZM195.833 34.8621L193.833 35.6921L192.167 37.8501L191.667 39.5101L191.5 41.6681L191.333 41.8341L191.5 46.3161L192.167 48.6401L192.833 49.8021C193.389 50.5768 194.278 51.1301 195.5 51.4621C197.389 51.6835 198.778 51.4068 199.667 50.6321C200.333 50.0788 200.833 49.3594 201.167 48.4741L201.833 45.4861V41.1701C201.5 40.9488 201.444 40.5061 201.667 39.8421L201 37.6841L200.5 36.8541C199.722 35.3048 198.167 34.6408 195.833 34.8621Z" fill="#1F5E19" stroke="#1F5E19"/>
<path d="M102.667 33.5339H113.25C113.394 33.5671 113.422 33.9268 113.333 34.6129L113.083 34.8619L111.75 35.0279L111 35.6089L110.833 36.6049L114.75 46.6479C115.039 46.7365 115.122 46.5981 115 46.2329L118.5 37.7669L118.667 35.9409L117.917 35.1939C117.594 34.9062 117.094 34.7955 116.417 34.8619L116.167 34.6129L116.333 33.7829L116.25 33.5339H123.917L124 33.6169V34.8619C123.067 34.8398 122.4 35.1441 122 35.7749L120.833 37.9329L113.333 56.6909C112.756 58.1628 111.894 59.3525 110.75 60.2599C110.039 60.8243 109.15 61.2117 108.083 61.4219H105.917L104.083 60.7579L103 59.6789C102.667 59.2363 102.556 58.5723 102.667 57.6869L103.75 56.2759C104.161 55.9107 104.828 55.8001 105.75 55.9439L108.25 57.9359H109.417L110.667 56.8569L112 53.5369L105.667 37.6009L104.833 35.9409L104.083 35.1939C103.75 34.8841 103.278 34.7734 102.667 34.8619V33.5339Z" fill="#1F5E19" stroke="#1F5E19"/>
<path d="M206.417 33.5339H216.917C217.061 33.5671 217.089 33.9268 217 34.6129L215.167 35.4429L215.333 36.6049L217.917 40.1739L220.667 36.7709C220.978 36.5828 221.089 36.1955 221 35.6089C220.644 34.9781 219.978 34.7291 219 34.8619V33.6169L219.083 33.5339H226.833V34.8619H226.083C225.017 35.1275 224.211 35.6532 223.667 36.4389L219.333 42.2489L224.333 49.3869L225.917 51.1299L227.5 51.7109L227.333 51.8769V52.9559H217.083L217 52.8729V51.6279C217.233 51.4509 217.65 51.3955 218.25 51.4619L218.833 51.0469L219 50.5489L218.5 49.5529L215.25 45.3199L212 49.3869L211.5 50.5489L211.917 51.1299L213.667 51.6279V52.8729L213.583 52.9559H205.833V51.7109L206.083 51.4619C207.394 51.3845 208.311 50.9141 208.833 50.0509L214 43.2449L208.417 35.5259L206.333 34.6129L206.5 33.7829L206.417 33.5339Z" fill="#1F5E19" stroke="#1F5E19"/>
</g>
<defs>
<clipPath id="clip0_1221_21">
<rect width="250" height="83" fill="white" transform="translate(0.5 0.5)"/>
</clipPath>
</defs>
</svg>
